<svg id="_x33_0" enable-background="new 0 0 62 62" height="512" viewBox="0 0 62 62" width="512" xmlns="http://www.w3.org/2000/svg"><g><path d="m49 0h-28c-1.654 0-3 1.346-3 3v5h-6c-3.309 0-6 2.691-6 6s2.691 6 6 6h6v4h-6v2.062c0 .472-.286.895-.758 1.088-.44.181-.938.083-1.27-.248l-1.458-1.458-7.071 7.071 1.449 1.449c.337.337.438.839.246 1.306-.182.443-.61.73-1.089.73h-2.049v10h2.062c.472 0 .892.282 1.092.768.178.434.079.929-.252 1.26l-1.458 1.458 7.071 7.071 1.449-1.449c.337-.336.84-.437 1.306-.246.443.183.73.61.73 1.089v2.049h9.641c2.367 2.46 5.684 4 9.359 4h28c1.654 0 3-1.346 3-3v-46c0-7.168-5.832-13-13-13zm-29 3c0-.551.449-1 1-1h28c6.065 0 11 4.935 11 11v3h-40v-6h2.101c.465 2.279 2.484 4 4.899 4 2.757 0 5-2.243 5-5s-2.243-5-5-5c-2.414 0-4.434 1.721-4.899 4h-2.101zm-2 42.889c-.328.067-.661.111-1 .111-2.757 0-5-2.243-5-5s2.243-5 5-5c.339 0 .672.044 1 .111zm0-11.805c-.33-.047-.663-.084-1-.084-3.86 0-7 3.14-7 7s3.14 7 7 7c.337 0 .67-.037 1-.084v1.084c0 .316.025.625.047.936-.347.04-.696.064-1.047.064-4.962 0-9-4.038-9-9s4.038-9 9-9c.335 0 .669.023 1 .059zm6.184-26.084c.414-1.161 1.514-2 2.816-2 1.654 0 3 1.346 3 3s-1.346 3-3 3c-1.302 0-2.402-.839-2.816-2h1.816v-2zm-12.184 10c-2.206 0-4-1.794-4-4s1.794-4 4-4h6v8zm8 37.938v.062h-6v-.049c0-1.293-.773-2.447-1.996-2.95-1.191-.49-2.545-.216-3.454.691l-.035.035-4.243-4.243.044-.043c.903-.904 1.173-2.252.667-3.484-.489-1.188-1.636-1.957-2.921-1.957h-.062v-6h.049c1.293 0 2.447-.773 2.95-1.996.489-1.189.217-2.545-.691-3.454l-.035-.035 4.243-4.243.043.044c.905.905 2.258 1.171 3.472.672 1.197-.491 1.97-1.64 1.97-2.927v-.061h4v4.05c-.333-.03-.667-.05-1.001-.05-6.065 0-11 4.935-11 11s4.935 11 11 11c.449 0 .896-.035 1.341-.089.33 1.436.899 2.778 1.662 3.989-.001.013-.003.026-.003.038zm39 4.062h-28c-6.065 0-11-4.935-11-11v-31h40v41c0 .551-.449 1-1 1z"/><path d="m30 54h2v2h-2z"/><path d="m36 54h2v2h-2z"/><path d="m42 54h2v2h-2z"/><path d="m48 54h2v2h-2z"/><path d="m53 22h-26c-1.654 0-3 1.346-3 3v22c0 1.654 1.346 3 3 3h26c1.654 0 3-1.346 3-3v-22c0-1.654-1.346-3-3-3zm-19 2h2v4h-1c-.551 0-1-.449-1-1zm4 0h2v4h-2zm4 0h4v3c0 .551-.449 1-1 1h-3zm12 23c0 .551-.449 1-1 1h-26c-.551 0-1-.449-1-1v-22c0-.551.449-1 1-1h5v3c0 1.654 1.346 3 3 3h10c1.654 0 3-1.346 3-3v-3h5c.551 0 1 .449 1 1z"/><path d="m42.535 36-2.535-3.803-2.535 3.803h-4.333l2.791 4.187-1.42 5.68 5.497-2.749 5.498 2.749-1.42-5.68 2.791-4.187zm-.033 6.133-2.502-1.251-2.502 1.251.58-2.32-1.209-1.813h1.667l1.464-2.197 1.465 2.197h1.667l-1.209 1.813z"/><path d="m36 12h14c1.103 0 2-.897 2-2v-4c0-1.103-.897-2-2-2h-14c-1.103 0-2 .897-2 2v4c0 1.103.897 2 2 2zm6-2h-2v-4h2zm2-4h2v4h-2zm6.001 4h-2.001v-4h2zm-14.001-4h2v4h-2z"/></g></svg>