<svg id="Capa_1" enable-background="new 0 0 512 512" height="512" viewBox="0 0 512 512" width="512" xmlns="http://www.w3.org/2000/svg"><g><path d="m32.828 64.15c0 4.143 3.357 7.5 7.5 7.5h64.622c4.143 0 7.5-3.357 7.5-7.5s-3.357-7.5-7.5-7.5h-64.622c-4.142 0-7.5 3.357-7.5 7.5z"/><path d="m493.572 29.03h-384.442c-4.143 0-7.5 3.357-7.5 7.5s3.357 7.5 7.5 7.5h384.442c1.89 0 3.428 1.538 3.428 3.429v36.811h-482v-36.812c0-1.891 1.538-3.429 3.429-3.429h60.715c4.143 0 7.5-3.357 7.5-7.5s-3.357-7.5-7.5-7.5h-60.715c-10.162.001-18.429 8.267-18.429 18.429v417.084c0 10.161 8.267 18.428 18.429 18.428h475.144c10.161 0 18.428-8.267 18.428-18.428v-46.705c0-4.143-3.357-7.5-7.5-7.5s-7.5 3.357-7.5 7.5v46.705c0 1.89-1.538 3.428-3.428 3.428h-475.144c-1.891 0-3.429-1.538-3.429-3.428v-365.273h482v288.581c0 4.143 3.357 7.5 7.5 7.5s7.5-3.357 7.5-7.5v-340.392c0-10.162-8.267-18.428-18.428-18.428z"/><path d="m346.638 243.944c.007-.007.012-.014.019-.021l38.308-38.307c14.2-14.201 14.2-37.308-.001-51.508-14.2-14.2-37.308-14.198-51.508 0l-69.554 69.554c-2.672-.26-5.371-.349-8.082-.227-15.839.714-30.72 8.071-40.829 20.186-2.843 3.408-4.366 5.398-8.171 10.264-2.587 3.234-2.062 7.954 1.174 10.541s7.954 2.062 10.541-1.174c.08-.106 5.168-6.657 7.974-10.021 7.525-9.019 18.175-14.278 29.986-14.811 11.821-.526 23.392 3.958 31.753 12.321l.082.082c8.363 8.362 12.854 19.937 12.322 31.754-.532 11.812-5.793 22.461-14.813 29.987-2.572 2.148-5.379 4.378-8.34 6.629-19.827 15.075-32.696 37.846-35.307 62.474-.904 3.457-2.512 4.454-6.048 3.797-11.905-4.082-22.614-9.233-32.176-15.476l28.78-28.78c2.929-2.93 2.929-7.678 0-10.607-2.93-2.928-7.678-2.928-10.607 0l-30.33 30.33c-4.934-4.182-9.489-8.736-13.671-13.67l30.33-30.33c2.929-2.93 2.929-7.678 0-10.607-2.93-2.928-7.678-2.928-10.607 0l-28.78 28.78c-6.243-9.562-11.393-20.271-15.475-32.175-.657-3.539.339-5.144 3.797-6.049 12.732-1.349 24.836-5.335 35.973-11.847 3.576-2.091 4.78-6.685 2.689-10.26-2.092-3.577-6.688-4.778-10.26-2.689-9.291 5.432-19.378 8.756-29.982 9.88-5.94.629-11.189 3.879-14.399 8.916-3.226 5.062-3.957 11.227-2.007 16.914 15.563 45.39 46.47 76.296 91.86 91.86 5.648 1.94 11.837 1.232 16.913-2.008 5.037-3.21 8.287-8.459 8.916-14.398 2.177-20.534 12.918-39.528 29.468-52.112 3.143-2.388 6.128-4.762 8.874-7.054 12.115-10.108 19.473-24.99 20.187-40.828.122-2.711.033-5.411-.227-8.084l31.207-31.207c.007-.007.014-.012.021-.019zm-2.576-79.229c8.353-8.352 21.944-8.352 30.295 0 8.353 8.352 8.353 21.941 0 30.294l-33.024 33.023-30.294-30.294zm-45.124 75.501-.082-.082c-5.223-5.222-11.377-9.315-18.054-12.157l19.631-19.632 30.294 30.294-19.632 19.632c-2.842-6.677-6.935-12.831-12.157-18.055z"/><path d="m150.197 218.021 8.223 4.497 4.496 8.222c2.241 4.1 6.537 6.647 11.209 6.647h.002c4.672 0 8.968-2.547 11.21-6.646l4.497-8.223 8.223-4.497c4.1-2.242 6.646-6.538 6.646-11.211 0-4.672-2.547-8.968-6.646-11.21l-8.223-4.497-4.497-8.223c-2.242-4.101-6.538-6.646-11.212-6.646-4.672 0-8.968 2.548-11.208 6.646l-4.497 8.223-8.223 4.497c-4.1 2.242-6.646 6.538-6.646 11.21 0 4.673 2.547 8.969 6.646 11.211zm15.994-14.071c2.147-1.176 3.902-2.932 5.076-5.078l2.859-5.228 2.859 5.228c1.175 2.148 2.931 3.904 5.079 5.079l5.229 2.86-5.229 2.859c-2.148 1.175-3.904 2.931-5.079 5.079l-2.859 5.228-2.859-5.228c-1.174-2.146-2.929-3.902-5.079-5.079l-5.229-2.86z"/><path d="m342.222 316.675 8.222 4.496 4.498 8.223c2.242 4.1 6.538 6.646 11.211 6.646 4.672 0 8.968-2.547 11.21-6.646l4.497-8.222 8.222-4.497c4.1-2.242 6.646-6.538 6.646-11.21 0-4.673-2.547-8.969-6.646-11.211l-8.223-4.498-4.496-8.222c-2.242-4.1-6.538-6.646-11.21-6.646-4.673 0-8.969 2.547-11.211 6.646l-4.497 8.223-8.223 4.497c-4.1 2.242-6.646 6.538-6.646 11.211-.001 4.672 2.546 8.968 6.646 11.21zm15.991-14.07c2.148-1.175 3.904-2.931 5.079-5.079l2.859-5.229 2.859 5.229c1.174 2.147 2.931 3.904 5.08 5.079l5.228 2.859-5.228 2.859c-2.148 1.175-3.905 2.932-5.08 5.08l-2.859 5.228-2.859-5.228c-1.175-2.149-2.932-3.906-5.079-5.08l-5.229-2.859z"/><path d="m169.779 382.013-8.223-4.497-4.497-8.223c-2.242-4.1-6.538-6.646-11.21-6.646-4.673 0-8.969 2.547-11.211 6.646l-4.497 8.223-8.223 4.497c-4.101 2.242-6.646 6.538-6.646 11.212 0 4.672 2.548 8.968 6.646 11.208l8.223 4.497 4.497 8.223c2.242 4.1 6.538 6.646 11.211 6.646 4.672 0 8.968-2.547 11.21-6.646l4.497-8.223 8.223-4.497c4.099-2.241 6.646-6.536 6.646-11.208.001-4.673-2.545-8.969-6.646-11.212zm-15.991 14.07c-2.149 1.176-3.906 2.933-5.079 5.079l-2.86 5.229-2.86-5.231c-1.176-2.147-2.932-3.902-5.078-5.076l-5.228-2.859 5.228-2.859c2.148-1.175 3.904-2.931 5.079-5.079l2.86-5.229 2.856 5.223c1.173 2.15 2.931 3.908 5.082 5.085l5.228 2.859z"/></g></svg>