<svg width="42" height="35" viewBox="0 0 42 35" fill="none" xmlns="http://www.w3.org/2000/svg">
<g opacity="0.1">
<path d="M13.2286 15.6432C12.2106 15.3501 11.1926 15.2014 10.2024 15.2014C8.67321 15.2014 7.39725 15.5509 6.40787 15.9788C7.36169 12.4869 9.65305 6.46175 14.2175 5.78323C14.6403 5.72037 14.9867 5.41471 15.102 5.00326L16.0996 1.43508C16.1837 1.13332 16.1339 0.81032 15.9618 0.548451C15.7896 0.286582 15.513 0.111858 15.203 0.0693692C14.8662 0.0234121 14.5228 0 14.1824 0C8.70356 0 3.27758 5.71863 0.987957 13.9068C-0.356073 18.7106 -0.750177 25.9328 2.56047 30.4787C4.41307 33.0224 7.11587 34.3807 10.5939 34.5164C10.6082 34.5169 10.6221 34.5173 10.6364 34.5173C14.9277 34.5173 18.7331 31.6272 19.8907 27.4897C20.5822 25.0163 20.2696 22.4223 19.0097 20.1839C17.7632 17.9705 15.7103 16.3573 13.2286 15.6432Z" fill="#D93059"/>
<path d="M40.0916 20.1848C38.8451 17.971 36.7922 16.3578 34.3105 15.6437C33.2926 15.3506 32.2746 15.2019 31.2847 15.2019C29.7556 15.2019 28.4792 15.5513 27.4898 15.9793C28.4436 12.4874 30.735 6.46224 35.2999 5.78372C35.7226 5.72085 36.0686 5.41519 36.1844 5.00375L37.182 1.43557C37.2661 1.13381 37.2163 0.810808 37.0441 0.548939C36.8724 0.28707 36.5958 0.112346 36.2854 0.0698575C35.949 0.0239004 35.6056 0.000488281 35.2648 0.000488281C29.7859 0.000488281 24.36 5.71912 22.0699 13.9073C20.7263 18.7111 20.3322 25.9333 23.6433 30.4801C25.4954 33.0233 28.1987 34.3821 31.6762 34.5173C31.6906 34.5178 31.7044 34.5182 31.7192 34.5182C36.0101 34.5182 39.8159 31.6281 40.9735 27.4907C41.6641 25.0172 41.3511 22.4228 40.0916 20.1848Z" fill="#D93059"/>
</g>
</svg>
