<svg width="488" height="427" viewBox="0 0 488 427" fill="none" xmlns="http://www.w3.org/2000/svg">
<path d="M25.65 11.05L20.05 29H17.65L13.275 15.6875C13.175 15.4208 13.0875 15.1 13.0125 14.725C12.9208 15.1083 12.8333 15.4292 12.75 15.6875L8.325 29H5.9375L0.3375 11.05H2.5625C2.79583 11.05 2.99167 11.1083 3.15 11.225C3.30833 11.3333 3.4125 11.4833 3.4625 11.675L7 23.6875C7.06667 23.9208 7.125 24.175 7.175 24.45C7.23333 24.725 7.29167 25.0125 7.35 25.3125C7.40833 25.0125 7.46667 24.725 7.525 24.45C7.59167 24.175 7.66667 23.9208 7.75 23.6875L11.8 11.675C11.85 11.5083 11.9542 11.3625 12.1125 11.2375C12.2792 11.1125 12.475 11.05 12.7 11.05H13.4625C13.6958 11.05 13.8875 11.1083 14.0375 11.225C14.1875 11.3417 14.2958 11.4917 14.3625 11.675L18.4 23.6875C18.55 24.1458 18.6833 24.6667 18.8 25.25C18.9 24.675 19.0083 24.1542 19.125 23.6875L22.675 11.675C22.7167 11.5083 22.8208 11.3625 22.9875 11.2375C23.1542 11.1125 23.35 11.05 23.575 11.05H25.65ZM34.6611 21.2375C34.6611 20.7542 34.5903 20.3083 34.4486 19.9C34.3153 19.4917 34.1153 19.1375 33.8486 18.8375C33.582 18.5375 33.257 18.3042 32.8736 18.1375C32.4903 17.9708 32.0486 17.8875 31.5486 17.8875C30.5236 17.8875 29.7153 18.1833 29.1236 18.775C28.5403 19.3667 28.1695 20.1875 28.0111 21.2375H34.6611ZM36.6736 27.1875C36.3736 27.5375 36.0278 27.8417 35.6361 28.1C35.2445 28.35 34.8278 28.5542 34.3861 28.7125C33.9445 28.8708 33.4861 28.9875 33.0111 29.0625C32.5445 29.1375 32.082 29.175 31.6236 29.175C30.7486 29.175 29.9361 29.0292 29.1861 28.7375C28.4445 28.4375 27.7986 28.0042 27.2486 27.4375C26.707 26.8625 26.282 26.1542 25.9736 25.3125C25.6736 24.4625 25.5236 23.4875 25.5236 22.3875C25.5236 21.5042 25.6611 20.6833 25.9361 19.925C26.2111 19.1583 26.6028 18.4917 27.1111 17.925C27.6278 17.3583 28.257 16.9125 28.9986 16.5875C29.7403 16.2625 30.5736 16.1 31.4986 16.1C32.2736 16.1 32.9861 16.2292 33.6361 16.4875C34.2945 16.7375 34.8611 17.1042 35.3361 17.5875C35.8111 18.0708 36.182 18.6667 36.4486 19.375C36.7236 20.0833 36.8611 20.8917 36.8611 21.8C36.8611 22.175 36.8195 22.4292 36.7361 22.5625C36.6528 22.6875 36.4986 22.75 36.2736 22.75H27.9486C27.9736 23.5083 28.082 24.1708 28.2736 24.7375C28.4653 25.2958 28.7278 25.7625 29.0611 26.1375C29.4028 26.5125 29.807 26.7917 30.2736 26.975C30.7403 27.1583 31.2611 27.25 31.8361 27.25C32.3778 27.25 32.8445 27.1875 33.2361 27.0625C33.6361 26.9375 33.9778 26.8042 34.2611 26.6625C34.5528 26.5125 34.7945 26.375 34.9861 26.25C35.1861 26.125 35.3611 26.0625 35.5111 26.0625C35.7111 26.0625 35.8653 26.1375 35.9736 26.2875L36.6736 27.1875ZM41.9186 25.875C42.3186 26.4 42.7519 26.7667 43.2186 26.975C43.6852 27.1833 44.1936 27.2875 44.7436 27.2875C45.8769 27.2875 46.7477 26.8833 47.3561 26.075C47.9727 25.2667 48.2811 24.0458 48.2811 22.4125C48.2811 20.9042 48.0102 19.8 47.4686 19.1C46.9269 18.3917 46.1602 18.0375 45.1686 18.0375C44.4686 18.0375 43.8602 18.1958 43.3436 18.5125C42.8352 18.8292 42.3602 19.2792 41.9186 19.8625V25.875ZM41.9186 18.05C42.4436 17.4667 43.0394 16.9958 43.7061 16.6375C44.3727 16.2792 45.1311 16.1 45.9811 16.1C46.7227 16.1 47.3894 16.2458 47.9811 16.5375C48.5811 16.8208 49.0894 17.2333 49.5061 17.775C49.9227 18.3083 50.2436 18.9583 50.4686 19.725C50.6936 20.4917 50.8061 21.3583 50.8061 22.325C50.8061 23.35 50.6769 24.2833 50.4186 25.125C50.1686 25.9667 49.8061 26.6875 49.3311 27.2875C48.8644 27.8875 48.2936 28.3542 47.6186 28.6875C46.9436 29.0125 46.1852 29.175 45.3436 29.175C44.9352 29.175 44.5602 29.1333 44.2186 29.05C43.8769 28.975 43.5602 28.8625 43.2686 28.7125C42.9852 28.5625 42.7227 28.3792 42.4811 28.1625C42.2394 27.9458 42.0102 27.7 41.7936 27.425L41.6811 28.4875C41.6144 28.8292 41.4061 29 41.0561 29H39.4811V10.55H41.9186V18.05ZM76.0049 20.025C76.0049 21.3667 75.7882 22.5875 75.3549 23.6875C74.9299 24.7875 74.3257 25.7333 73.5424 26.525C72.7591 27.3083 71.8216 27.9167 70.7299 28.35C69.6382 28.7833 68.4257 29 67.0924 29H60.3424V11.05H67.0924C68.4257 11.05 69.6382 11.2667 70.7299 11.7C71.8216 12.1333 72.7591 12.7458 73.5424 13.5375C74.3257 14.3208 74.9299 15.2667 75.3549 16.375C75.7882 17.475 76.0049 18.6917 76.0049 20.025ZM73.2799 20.025C73.2799 18.9583 73.134 18.0042 72.8424 17.1625C72.5507 16.3125 72.1341 15.5958 71.5924 15.0125C71.059 14.4208 70.409 13.9708 69.6424 13.6625C68.8841 13.3542 68.034 13.2 67.0924 13.2H63.0174V26.85H67.0924C68.034 26.85 68.8841 26.6958 69.6424 26.3875C70.409 26.0792 71.059 25.6333 71.5924 25.05C72.1341 24.4583 72.5507 23.7417 72.8424 22.9C73.134 22.0583 73.2799 21.1 73.2799 20.025ZM87.1025 21.2375C87.1025 20.7542 87.0317 20.3083 86.89 19.9C86.7567 19.4917 86.5567 19.1375 86.29 18.8375C86.0234 18.5375 85.6984 18.3042 85.315 18.1375C84.9317 17.9708 84.49 17.8875 83.99 17.8875C82.965 17.8875 82.1567 18.1833 81.565 18.775C80.9817 19.3667 80.6109 20.1875 80.4525 21.2375H87.1025ZM89.115 27.1875C88.815 27.5375 88.4692 27.8417 88.0775 28.1C87.6859 28.35 87.2692 28.5542 86.8275 28.7125C86.3859 28.8708 85.9275 28.9875 85.4525 29.0625C84.9859 29.1375 84.5234 29.175 84.065 29.175C83.19 29.175 82.3775 29.0292 81.6275 28.7375C80.8859 28.4375 80.24 28.0042 79.69 27.4375C79.1484 26.8625 78.7234 26.1542 78.415 25.3125C78.115 24.4625 77.965 23.4875 77.965 22.3875C77.965 21.5042 78.1025 20.6833 78.3775 19.925C78.6525 19.1583 79.0442 18.4917 79.5525 17.925C80.0692 17.3583 80.6984 16.9125 81.44 16.5875C82.1817 16.2625 83.015 16.1 83.94 16.1C84.715 16.1 85.4275 16.2292 86.0775 16.4875C86.7359 16.7375 87.3025 17.1042 87.7775 17.5875C88.2525 18.0708 88.6234 18.6667 88.89 19.375C89.165 20.0833 89.3025 20.8917 89.3025 21.8C89.3025 22.175 89.2609 22.4292 89.1775 22.5625C89.0942 22.6875 88.94 22.75 88.715 22.75H80.39C80.415 23.5083 80.5234 24.1708 80.715 24.7375C80.9067 25.2958 81.1692 25.7625 81.5025 26.1375C81.8442 26.5125 82.2484 26.7917 82.715 26.975C83.1817 27.1583 83.7025 27.25 84.2775 27.25C84.8192 27.25 85.2859 27.1875 85.6775 27.0625C86.0775 26.9375 86.4192 26.8042 86.7025 26.6625C86.9942 26.5125 87.2359 26.375 87.4275 26.25C87.6275 26.125 87.8025 26.0625 87.9525 26.0625C88.1525 26.0625 88.3067 26.1375 88.415 26.2875L89.115 27.1875ZM99.41 18.4875C99.3433 18.5958 99.2725 18.675 99.1975 18.725C99.1225 18.7667 99.0266 18.7875 98.91 18.7875C98.7766 18.7875 98.6266 18.7417 98.46 18.65C98.3016 18.5583 98.1058 18.4583 97.8725 18.35C97.6475 18.2417 97.3808 18.1417 97.0725 18.05C96.7641 17.9583 96.3975 17.9125 95.9725 17.9125C95.6225 17.9125 95.3016 17.9583 95.01 18.05C94.7266 18.1333 94.485 18.2542 94.285 18.4125C94.085 18.5625 93.9308 18.7458 93.8225 18.9625C93.7141 19.1708 93.66 19.3958 93.66 19.6375C93.66 19.9542 93.7516 20.2167 93.935 20.425C94.1266 20.6333 94.3725 20.8125 94.6725 20.9625C94.9808 21.1125 95.3266 21.25 95.71 21.375C96.1016 21.4917 96.4975 21.6167 96.8975 21.75C97.3058 21.8833 97.7016 22.0375 98.085 22.2125C98.4766 22.3792 98.8225 22.5917 99.1225 22.85C99.4308 23.1 99.6766 23.4042 99.86 23.7625C100.052 24.1208 100.147 24.5583 100.147 25.075C100.147 25.6667 100.039 26.2167 99.8225 26.725C99.6141 27.225 99.3016 27.6583 98.885 28.025C98.4766 28.3917 97.9683 28.6792 97.36 28.8875C96.7516 29.0958 96.0558 29.2 95.2725 29.2C94.3975 29.2 93.5891 29.0542 92.8475 28.7625C92.1058 28.4708 91.485 28.1 90.985 27.65L91.56 26.7125C91.6266 26.5958 91.71 26.5083 91.81 26.45C91.91 26.3833 92.0433 26.35 92.21 26.35C92.3683 26.35 92.5308 26.4083 92.6975 26.525C92.8641 26.6417 93.0641 26.7708 93.2975 26.9125C93.5308 27.0458 93.8141 27.1708 94.1475 27.2875C94.4808 27.3958 94.8975 27.45 95.3975 27.45C95.8141 27.45 96.1766 27.4 96.485 27.3C96.7933 27.1917 97.0475 27.05 97.2475 26.875C97.4558 26.6917 97.61 26.4833 97.71 26.25C97.81 26.0167 97.86 25.7708 97.86 25.5125C97.86 25.1792 97.7641 24.9042 97.5725 24.6875C97.3891 24.4625 97.1433 24.2708 96.835 24.1125C96.535 23.9542 96.1891 23.8167 95.7975 23.7C95.4058 23.5833 95.0058 23.4583 94.5975 23.325C94.1891 23.1917 93.7891 23.0375 93.3975 22.8625C93.0058 22.6875 92.6558 22.4667 92.3475 22.2C92.0475 21.9333 91.8016 21.6083 91.61 21.225C91.4266 20.8417 91.335 20.375 91.335 19.825C91.335 19.3333 91.435 18.8625 91.635 18.4125C91.8433 17.9625 92.1391 17.5667 92.5225 17.225C92.9141 16.8833 93.3933 16.6125 93.96 16.4125C94.535 16.2042 95.1891 16.1 95.9225 16.1C96.7641 16.1 97.5225 16.2333 98.1975 16.5C98.8808 16.7667 99.4641 17.1333 99.9475 17.6L99.41 18.4875ZM105.337 16.3V29H102.899V16.3H105.337ZM105.799 12.375C105.799 12.6 105.753 12.8167 105.662 13.025C105.57 13.225 105.445 13.4042 105.287 13.5625C105.137 13.7125 104.958 13.8333 104.749 13.925C104.541 14.0083 104.324 14.05 104.099 14.05C103.874 14.05 103.662 14.0083 103.462 13.925C103.262 13.8333 103.083 13.7125 102.924 13.5625C102.774 13.4042 102.653 13.225 102.562 13.025C102.478 12.8167 102.437 12.6 102.437 12.375C102.437 12.1417 102.478 11.925 102.562 11.725C102.653 11.5167 102.774 11.3375 102.924 11.1875C103.083 11.0292 103.262 10.9083 103.462 10.825C103.662 10.7333 103.874 10.6875 104.099 10.6875C104.324 10.6875 104.541 10.7333 104.749 10.825C104.958 10.9083 105.137 11.0292 105.287 11.1875C105.445 11.3375 105.57 11.5167 105.662 11.725C105.753 11.925 105.799 12.1417 105.799 12.375ZM113.328 22.6625C113.762 22.6625 114.141 22.6042 114.466 22.4875C114.799 22.3708 115.074 22.2083 115.291 22C115.516 21.7833 115.682 21.525 115.791 21.225C115.907 20.925 115.966 20.5958 115.966 20.2375C115.966 19.5042 115.741 18.9208 115.291 18.4875C114.849 18.0458 114.195 17.825 113.328 17.825C112.47 17.825 111.816 18.0458 111.366 18.4875C110.924 18.9208 110.703 19.5042 110.703 20.2375C110.703 20.5958 110.757 20.925 110.866 21.225C110.982 21.5167 111.149 21.7708 111.366 21.9875C111.591 22.1958 111.866 22.3625 112.191 22.4875C112.524 22.6042 112.903 22.6625 113.328 22.6625ZM117.216 29.6625C117.216 29.3625 117.132 29.125 116.966 28.95C116.799 28.7667 116.57 28.625 116.278 28.525C115.995 28.4167 115.662 28.3417 115.278 28.3C114.895 28.25 114.491 28.2125 114.066 28.1875C113.649 28.1625 113.22 28.1417 112.778 28.125C112.337 28.1 111.912 28.0583 111.503 28C111.07 28.2167 110.712 28.4792 110.428 28.7875C110.153 29.0958 110.016 29.4583 110.016 29.875C110.016 30.1417 110.082 30.3917 110.216 30.625C110.357 30.8583 110.57 31.0583 110.853 31.225C111.145 31.4 111.507 31.5333 111.941 31.625C112.382 31.725 112.907 31.775 113.516 31.775C114.116 31.775 114.645 31.7208 115.103 31.6125C115.562 31.5125 115.945 31.3667 116.253 31.175C116.57 30.9917 116.807 30.7708 116.966 30.5125C117.132 30.2542 117.216 29.9708 117.216 29.6625ZM119.691 16.775V17.6875C119.691 17.9875 119.503 18.175 119.128 18.25L117.766 18.45C117.882 18.7083 117.974 18.9833 118.041 19.275C118.107 19.5583 118.141 19.8583 118.141 20.175C118.141 20.8 118.02 21.3667 117.778 21.875C117.537 22.375 117.203 22.8042 116.778 23.1625C116.353 23.5208 115.845 23.7958 115.253 23.9875C114.67 24.1792 114.028 24.275 113.328 24.275C112.753 24.275 112.216 24.2125 111.716 24.0875C111.466 24.2375 111.274 24.4042 111.141 24.5875C111.016 24.7625 110.953 24.9375 110.953 25.1125C110.953 25.4042 111.074 25.6208 111.316 25.7625C111.566 25.9042 111.887 26.0083 112.278 26.075C112.678 26.1333 113.132 26.1708 113.641 26.1875C114.157 26.2042 114.678 26.2333 115.203 26.275C115.737 26.3083 116.257 26.375 116.766 26.475C117.282 26.5667 117.737 26.7208 118.128 26.9375C118.528 27.1458 118.849 27.4375 119.091 27.8125C119.341 28.1792 119.466 28.6583 119.466 29.25C119.466 29.8 119.328 30.3333 119.053 30.85C118.787 31.3667 118.395 31.825 117.878 32.225C117.362 32.625 116.732 32.9458 115.991 33.1875C115.249 33.4292 114.407 33.55 113.466 33.55C112.524 33.55 111.703 33.4583 111.003 33.275C110.312 33.0917 109.732 32.8458 109.266 32.5375C108.807 32.2292 108.462 31.8708 108.228 31.4625C108.003 31.0542 107.891 30.6292 107.891 30.1875C107.891 29.5708 108.082 29.05 108.466 28.625C108.849 28.1917 109.378 27.8542 110.053 27.6125C109.687 27.4458 109.395 27.2208 109.178 26.9375C108.962 26.6458 108.853 26.2625 108.853 25.7875C108.853 25.6042 108.887 25.4167 108.953 25.225C109.02 25.025 109.12 24.8292 109.253 24.6375C109.395 24.4375 109.566 24.25 109.766 24.075C109.974 23.9 110.212 23.7417 110.478 23.6C109.853 23.25 109.362 22.7875 109.003 22.2125C108.645 21.6292 108.466 20.95 108.466 20.175C108.466 19.55 108.587 18.9875 108.828 18.4875C109.07 17.9875 109.403 17.5583 109.828 17.2C110.262 16.8417 110.774 16.5667 111.366 16.375C111.966 16.1833 112.62 16.0875 113.328 16.0875C114.428 16.0875 115.374 16.3167 116.166 16.775H119.691ZM124.215 18.0625C124.49 17.7708 124.777 17.5042 125.077 17.2625C125.377 17.0208 125.694 16.8167 126.027 16.65C126.369 16.475 126.732 16.3417 127.115 16.25C127.507 16.15 127.923 16.1 128.365 16.1C129.065 16.1 129.677 16.2167 130.202 16.45C130.736 16.6833 131.182 17.0125 131.54 17.4375C131.898 17.8542 132.169 18.3583 132.352 18.95C132.536 19.5417 132.627 20.1958 132.627 20.9125V29H130.177V20.9125C130.177 20.0042 129.969 19.3 129.552 18.8C129.136 18.2917 128.498 18.0375 127.64 18.0375C127.015 18.0375 126.427 18.1875 125.877 18.4875C125.336 18.7792 124.832 19.1792 124.365 19.6875V29H121.927V16.3H123.39C123.732 16.3 123.944 16.4625 124.027 16.7875L124.215 18.0625Z" fill="#050C26"/>
<path d="M9.2125 144.862C9.92917 144.862 10.5708 144.742 11.1375 144.5C11.7042 144.258 12.1833 143.921 12.575 143.487C12.9667 143.046 13.2667 142.525 13.475 141.925C13.6833 141.317 13.7875 140.646 13.7875 139.912V129.05H16.4375V139.912C16.4375 140.962 16.2708 141.933 15.9375 142.825C15.6042 143.717 15.125 144.487 14.5 145.137C13.875 145.787 13.1167 146.296 12.225 146.662C11.3333 147.029 10.3292 147.213 9.2125 147.213C8.09583 147.213 7.09167 147.029 6.2 146.662C5.30833 146.296 4.55 145.787 3.925 145.137C3.3 144.487 2.82083 143.717 2.4875 142.825C2.15417 141.933 1.9875 140.962 1.9875 139.912V129.05H4.65V139.9C4.65 140.633 4.75 141.304 4.95 141.912C5.15833 142.521 5.45833 143.046 5.85 143.487C6.24167 143.921 6.72083 144.258 7.2875 144.5C7.85417 144.742 8.49583 144.862 9.2125 144.862ZM23.3201 147H20.6451V129.05H23.3201V147ZM37.8604 138.275C37.0354 138.733 36.4187 139.283 36.0104 139.925C35.6104 140.558 35.4104 141.242 35.4104 141.975C35.4104 142.492 35.502 142.954 35.6854 143.362C35.877 143.762 36.127 144.1 36.4354 144.375C36.752 144.65 37.1104 144.858 37.5104 145C37.9187 145.142 38.3354 145.212 38.7604 145.212C39.6437 145.212 40.4395 145.058 41.1479 144.75C41.8562 144.433 42.4854 144.012 43.0354 143.487L37.8604 138.275ZM49.5479 147H47.1729C46.9062 147 46.6937 146.971 46.5354 146.912C46.3854 146.846 46.2145 146.712 46.0229 146.512L44.3604 144.837C43.577 145.571 42.677 146.15 41.6604 146.575C40.652 146.992 39.5437 147.2 38.3354 147.2C37.6604 147.2 36.9979 147.088 36.3479 146.862C35.7062 146.629 35.1312 146.296 34.6229 145.862C34.1145 145.429 33.702 144.904 33.3854 144.287C33.077 143.662 32.9229 142.958 32.9229 142.175C32.9229 141.6 33.0187 141.054 33.2104 140.537C33.402 140.012 33.6687 139.533 34.0104 139.1C34.352 138.658 34.7562 138.262 35.2229 137.912C35.6979 137.562 36.2104 137.262 36.7604 137.012C36.2687 136.371 35.9062 135.75 35.6729 135.15C35.4479 134.542 35.3354 133.921 35.3354 133.287C35.3354 132.679 35.4479 132.104 35.6729 131.562C35.8979 131.021 36.2187 130.55 36.6354 130.15C37.052 129.75 37.5604 129.433 38.1604 129.2C38.7687 128.967 39.452 128.85 40.2104 128.85C40.8854 128.85 41.4979 128.958 42.0479 129.175C42.6062 129.383 43.0854 129.667 43.4854 130.025C43.8854 130.383 44.1979 130.796 44.4229 131.262C44.6562 131.729 44.7895 132.217 44.8229 132.725L43.2979 133.037C42.9895 133.104 42.7645 132.967 42.6229 132.625C42.5562 132.408 42.4604 132.187 42.3354 131.962C42.2187 131.737 42.0604 131.537 41.8604 131.362C41.6687 131.179 41.4354 131.029 41.1604 130.912C40.8854 130.796 40.5687 130.737 40.2104 130.737C39.8104 130.737 39.4479 130.804 39.1229 130.937C38.8062 131.071 38.5354 131.254 38.3104 131.487C38.0854 131.712 37.9104 131.979 37.7854 132.287C37.6687 132.596 37.6104 132.925 37.6104 133.275C37.6104 133.55 37.6437 133.821 37.7104 134.088C37.777 134.346 37.877 134.608 38.0104 134.875C38.152 135.133 38.3312 135.4 38.5479 135.675C38.7645 135.942 39.0229 136.229 39.3229 136.537L44.3854 141.725C44.6937 141.175 44.9395 140.596 45.1229 139.987C45.3062 139.379 45.427 138.771 45.4854 138.162C45.502 137.996 45.552 137.862 45.6354 137.762C45.727 137.662 45.8562 137.612 46.0229 137.612H47.5354C47.527 138.612 47.3729 139.587 47.0729 140.537C46.7729 141.479 46.3479 142.354 45.7979 143.162L49.5479 147ZM65.2672 144.862C65.9839 144.862 66.6255 144.742 67.1922 144.5C67.7589 144.258 68.238 143.921 68.6297 143.487C69.0214 143.046 69.3214 142.525 69.5297 141.925C69.738 141.317 69.8422 140.646 69.8422 139.912V129.05H72.4922V139.912C72.4922 140.962 72.3255 141.933 71.9922 142.825C71.6589 143.717 71.1797 144.487 70.5547 145.137C69.9297 145.787 69.1714 146.296 68.2797 146.662C67.388 147.029 66.3839 147.213 65.2672 147.213C64.1505 147.213 63.1464 147.029 62.2547 146.662C61.363 146.296 60.6047 145.787 59.9797 145.137C59.3547 144.487 58.8755 143.717 58.5422 142.825C58.2089 141.933 58.0422 140.962 58.0422 139.912V129.05H60.7047V139.9C60.7047 140.633 60.8047 141.304 61.0047 141.912C61.213 142.521 61.513 143.046 61.9047 143.487C62.2964 143.921 62.7755 144.258 63.3422 144.5C63.9089 144.742 64.5505 144.862 65.2672 144.862ZM90.6248 147H87.9873C87.7956 147 87.6415 146.95 87.5248 146.85C87.4081 146.742 87.3165 146.629 87.2498 146.512L82.6123 139.125C82.5456 139.333 82.4665 139.512 82.3748 139.662L77.8623 146.512C77.779 146.629 77.6831 146.742 77.5748 146.85C77.4665 146.95 77.329 147 77.1623 147H74.6748L80.8123 137.762L74.9373 129.05H77.5748C77.7665 129.05 77.9081 129.079 77.9998 129.137C78.0915 129.196 78.1706 129.283 78.2373 129.4L82.7748 136.437C82.8415 136.221 82.9331 136.021 83.0498 135.837L87.2998 129.45C87.3748 129.317 87.4581 129.217 87.5498 129.15C87.6415 129.083 87.7581 129.05 87.8998 129.05H90.4373L84.5248 137.65L90.6248 147ZM115.043 138.025C115.043 139.367 114.826 140.587 114.393 141.687C113.968 142.787 113.364 143.733 112.58 144.525C111.797 145.308 110.86 145.917 109.768 146.35C108.676 146.783 107.464 147 106.13 147H99.3805V129.05H106.13C107.464 129.05 108.676 129.267 109.768 129.7C110.86 130.133 111.797 130.746 112.58 131.537C113.364 132.321 113.968 133.267 114.393 134.375C114.826 135.475 115.043 136.692 115.043 138.025ZM112.318 138.025C112.318 136.958 112.172 136.004 111.88 135.162C111.589 134.312 111.172 133.596 110.63 133.012C110.097 132.421 109.447 131.971 108.68 131.662C107.922 131.354 107.072 131.2 106.13 131.2H102.055V144.85H106.13C107.072 144.85 107.922 144.696 108.68 144.387C109.447 144.079 110.097 143.633 110.63 143.05C111.172 142.458 111.589 141.742 111.88 140.9C112.172 140.058 112.318 139.1 112.318 138.025ZM126.141 139.237C126.141 138.754 126.07 138.308 125.928 137.9C125.795 137.492 125.595 137.137 125.328 136.837C125.061 136.537 124.736 136.304 124.353 136.137C123.97 135.971 123.528 135.887 123.028 135.887C122.003 135.887 121.195 136.183 120.603 136.775C120.02 137.367 119.649 138.187 119.491 139.237H126.141ZM128.153 145.187C127.853 145.537 127.507 145.842 127.116 146.1C126.724 146.35 126.307 146.554 125.866 146.712C125.424 146.871 124.966 146.987 124.491 147.063C124.024 147.138 123.561 147.175 123.103 147.175C122.228 147.175 121.416 147.029 120.666 146.737C119.924 146.437 119.278 146.004 118.728 145.438C118.186 144.862 117.761 144.154 117.453 143.312C117.153 142.462 117.003 141.487 117.003 140.387C117.003 139.504 117.141 138.683 117.416 137.925C117.691 137.158 118.082 136.492 118.591 135.925C119.107 135.358 119.736 134.912 120.478 134.587C121.22 134.262 122.053 134.1 122.978 134.1C123.753 134.1 124.466 134.229 125.116 134.487C125.774 134.737 126.341 135.104 126.816 135.587C127.291 136.071 127.661 136.667 127.928 137.375C128.203 138.083 128.341 138.892 128.341 139.8C128.341 140.175 128.299 140.429 128.216 140.562C128.132 140.687 127.978 140.75 127.753 140.75H119.428C119.453 141.508 119.561 142.171 119.753 142.737C119.945 143.296 120.207 143.762 120.541 144.137C120.882 144.512 121.286 144.792 121.753 144.975C122.22 145.158 122.741 145.25 123.316 145.25C123.857 145.25 124.324 145.187 124.716 145.062C125.116 144.937 125.457 144.804 125.741 144.662C126.032 144.512 126.274 144.375 126.466 144.25C126.666 144.125 126.841 144.062 126.991 144.062C127.191 144.062 127.345 144.137 127.453 144.287L128.153 145.187ZM138.448 136.487C138.381 136.596 138.311 136.675 138.236 136.725C138.161 136.767 138.065 136.787 137.948 136.787C137.815 136.787 137.665 136.742 137.498 136.65C137.34 136.558 137.144 136.458 136.911 136.35C136.686 136.242 136.419 136.142 136.111 136.05C135.802 135.958 135.436 135.912 135.011 135.912C134.661 135.912 134.34 135.958 134.048 136.05C133.765 136.133 133.523 136.254 133.323 136.412C133.123 136.562 132.969 136.746 132.861 136.962C132.752 137.171 132.698 137.396 132.698 137.637C132.698 137.954 132.79 138.217 132.973 138.425C133.165 138.633 133.411 138.812 133.711 138.962C134.019 139.112 134.365 139.25 134.748 139.375C135.14 139.492 135.536 139.617 135.936 139.75C136.344 139.883 136.74 140.037 137.123 140.212C137.515 140.379 137.861 140.592 138.161 140.85C138.469 141.1 138.715 141.404 138.898 141.762C139.09 142.121 139.186 142.558 139.186 143.075C139.186 143.667 139.077 144.217 138.861 144.725C138.652 145.225 138.34 145.658 137.923 146.025C137.515 146.392 137.006 146.679 136.398 146.887C135.79 147.096 135.094 147.2 134.311 147.2C133.436 147.2 132.627 147.054 131.886 146.762C131.144 146.471 130.523 146.1 130.023 145.65L130.598 144.712C130.665 144.596 130.748 144.508 130.848 144.45C130.948 144.383 131.081 144.35 131.248 144.35C131.406 144.35 131.569 144.408 131.736 144.525C131.902 144.642 132.102 144.771 132.336 144.912C132.569 145.046 132.852 145.171 133.186 145.287C133.519 145.396 133.936 145.45 134.436 145.45C134.852 145.45 135.215 145.4 135.523 145.3C135.831 145.192 136.086 145.05 136.286 144.875C136.494 144.692 136.648 144.483 136.748 144.25C136.848 144.017 136.898 143.771 136.898 143.512C136.898 143.179 136.802 142.904 136.611 142.687C136.427 142.462 136.181 142.271 135.873 142.112C135.573 141.954 135.227 141.817 134.836 141.7C134.444 141.583 134.044 141.458 133.636 141.325C133.227 141.192 132.827 141.037 132.436 140.862C132.044 140.687 131.694 140.467 131.386 140.2C131.086 139.933 130.84 139.608 130.648 139.225C130.465 138.842 130.373 138.375 130.373 137.825C130.373 137.333 130.473 136.862 130.673 136.412C130.881 135.962 131.177 135.567 131.561 135.225C131.952 134.883 132.431 134.612 132.998 134.412C133.573 134.204 134.227 134.1 134.961 134.1C135.802 134.1 136.561 134.233 137.236 134.5C137.919 134.767 138.502 135.133 138.986 135.6L138.448 136.487ZM144.375 134.3V147H141.937V134.3H144.375ZM144.837 130.375C144.837 130.6 144.791 130.817 144.7 131.025C144.608 131.225 144.483 131.404 144.325 131.562C144.175 131.712 143.996 131.833 143.787 131.925C143.579 132.008 143.362 132.05 143.137 132.05C142.912 132.05 142.7 132.008 142.5 131.925C142.3 131.833 142.121 131.712 141.962 131.562C141.812 131.404 141.691 131.225 141.6 131.025C141.516 130.817 141.475 130.6 141.475 130.375C141.475 130.142 141.516 129.925 141.6 129.725C141.691 129.517 141.812 129.337 141.962 129.187C142.121 129.029 142.3 128.908 142.5 128.825C142.7 128.733 142.912 128.687 143.137 128.687C143.362 128.687 143.579 128.733 143.787 128.825C143.996 128.908 144.175 129.029 144.325 129.187C144.483 129.337 144.608 129.517 144.7 129.725C144.791 129.925 144.837 130.142 144.837 130.375ZM152.366 140.662C152.8 140.662 153.179 140.604 153.504 140.487C153.837 140.371 154.112 140.208 154.329 140C154.554 139.783 154.721 139.525 154.829 139.225C154.946 138.925 155.004 138.596 155.004 138.237C155.004 137.504 154.779 136.921 154.329 136.487C153.887 136.046 153.233 135.825 152.366 135.825C151.508 135.825 150.854 136.046 150.404 136.487C149.962 136.921 149.741 137.504 149.741 138.237C149.741 138.596 149.796 138.925 149.904 139.225C150.021 139.517 150.187 139.771 150.404 139.987C150.629 140.196 150.904 140.362 151.229 140.487C151.562 140.604 151.941 140.662 152.366 140.662ZM156.254 147.663C156.254 147.363 156.171 147.125 156.004 146.95C155.837 146.767 155.608 146.625 155.316 146.525C155.033 146.417 154.7 146.342 154.316 146.3C153.933 146.25 153.529 146.212 153.104 146.187C152.687 146.162 152.258 146.142 151.816 146.125C151.375 146.1 150.95 146.058 150.541 146C150.108 146.217 149.75 146.479 149.466 146.787C149.191 147.096 149.054 147.458 149.054 147.875C149.054 148.142 149.121 148.392 149.254 148.625C149.396 148.858 149.608 149.058 149.891 149.225C150.183 149.4 150.546 149.533 150.979 149.625C151.421 149.725 151.946 149.775 152.554 149.775C153.154 149.775 153.683 149.721 154.141 149.613C154.6 149.513 154.983 149.367 155.291 149.175C155.608 148.992 155.846 148.771 156.004 148.513C156.171 148.254 156.254 147.971 156.254 147.663ZM158.729 134.775V135.687C158.729 135.987 158.541 136.175 158.166 136.25L156.804 136.45C156.921 136.708 157.012 136.983 157.079 137.275C157.146 137.558 157.179 137.858 157.179 138.175C157.179 138.8 157.058 139.367 156.816 139.875C156.575 140.375 156.241 140.804 155.816 141.162C155.391 141.521 154.883 141.796 154.291 141.987C153.708 142.179 153.066 142.275 152.366 142.275C151.791 142.275 151.254 142.212 150.754 142.087C150.504 142.237 150.312 142.404 150.179 142.587C150.054 142.762 149.991 142.937 149.991 143.112C149.991 143.404 150.112 143.621 150.354 143.762C150.604 143.904 150.925 144.008 151.316 144.075C151.716 144.133 152.171 144.171 152.679 144.187C153.196 144.204 153.716 144.233 154.241 144.275C154.775 144.308 155.296 144.375 155.804 144.475C156.321 144.567 156.775 144.721 157.166 144.937C157.566 145.146 157.887 145.437 158.129 145.812C158.379 146.179 158.504 146.658 158.504 147.25C158.504 147.8 158.366 148.333 158.091 148.85C157.825 149.367 157.433 149.825 156.916 150.225C156.4 150.625 155.771 150.946 155.029 151.188C154.287 151.429 153.446 151.55 152.504 151.55C151.562 151.55 150.741 151.458 150.041 151.275C149.35 151.092 148.771 150.846 148.304 150.538C147.846 150.229 147.5 149.871 147.266 149.463C147.041 149.054 146.929 148.629 146.929 148.188C146.929 147.571 147.121 147.05 147.504 146.625C147.887 146.192 148.416 145.854 149.091 145.612C148.725 145.446 148.433 145.221 148.216 144.937C148 144.646 147.891 144.262 147.891 143.788C147.891 143.604 147.925 143.417 147.991 143.225C148.058 143.025 148.158 142.829 148.291 142.637C148.433 142.437 148.604 142.25 148.804 142.075C149.012 141.9 149.25 141.742 149.516 141.6C148.891 141.25 148.4 140.787 148.041 140.212C147.683 139.629 147.504 138.95 147.504 138.175C147.504 137.55 147.625 136.987 147.866 136.487C148.108 135.987 148.441 135.558 148.866 135.2C149.3 134.842 149.812 134.567 150.404 134.375C151.004 134.183 151.658 134.088 152.366 134.088C153.466 134.088 154.412 134.317 155.204 134.775H158.729ZM163.253 136.062C163.528 135.771 163.815 135.504 164.115 135.262C164.415 135.021 164.732 134.817 165.065 134.65C165.407 134.475 165.77 134.342 166.153 134.25C166.545 134.15 166.961 134.1 167.403 134.1C168.103 134.1 168.715 134.217 169.24 134.45C169.774 134.683 170.22 135.012 170.578 135.437C170.936 135.854 171.207 136.358 171.39 136.95C171.574 137.542 171.665 138.196 171.665 138.912V147H169.215V138.912C169.215 138.004 169.007 137.3 168.59 136.8C168.174 136.292 167.536 136.037 166.678 136.037C166.053 136.037 165.465 136.187 164.915 136.487C164.374 136.779 163.87 137.179 163.403 137.687V147H160.965V134.3H162.428C162.77 134.3 162.982 134.462 163.065 134.787L163.253 136.062Z" fill="#050C26"/>
<path d="M16.8625 256.262V263.262C15.9542 263.912 14.9875 264.4 13.9625 264.725C12.9375 265.042 11.8208 265.2 10.6125 265.2C9.1625 265.2 7.85 264.975 6.675 264.525C5.50833 264.075 4.5125 263.446 3.6875 262.637C2.8625 261.829 2.225 260.862 1.775 259.737C1.33333 258.612 1.1125 257.375 1.1125 256.025C1.1125 254.667 1.325 253.425 1.75 252.3C2.18333 251.167 2.8 250.2 3.6 249.4C4.4 248.592 5.36667 247.967 6.5 247.525C7.64167 247.075 8.92083 246.85 10.3375 246.85C11.0542 246.85 11.7167 246.904 12.325 247.012C12.9417 247.121 13.5125 247.275 14.0375 247.475C14.5625 247.675 15.0458 247.917 15.4875 248.2C15.9375 248.475 16.3542 248.787 16.7375 249.137L15.975 250.337C15.8583 250.529 15.7042 250.65 15.5125 250.7C15.3208 250.75 15.1125 250.704 14.8875 250.562C14.6708 250.437 14.4292 250.292 14.1625 250.125C13.9042 249.958 13.5917 249.804 13.225 249.662C12.8667 249.521 12.4458 249.4 11.9625 249.3C11.4792 249.2 10.9083 249.15 10.25 249.15C9.26667 249.15 8.37917 249.312 7.5875 249.637C6.79583 249.954 6.12083 250.412 5.5625 251.012C5.00417 251.612 4.575 252.337 4.275 253.187C3.975 254.029 3.825 254.975 3.825 256.025C3.825 257.125 3.98333 258.112 4.3 258.987C4.61667 259.854 5.0625 260.592 5.6375 261.2C6.22083 261.8 6.925 262.258 7.75 262.575C8.58333 262.892 9.5125 263.05 10.5375 263.05C10.9375 263.05 11.3083 263.029 11.65 262.987C12 262.937 12.3333 262.871 12.65 262.787C12.9667 262.704 13.2708 262.6 13.5625 262.475C13.8625 262.35 14.1583 262.212 14.45 262.062V258.3H11.8C11.6333 258.3 11.4958 258.25 11.3875 258.15C11.2875 258.05 11.2375 257.925 11.2375 257.775V256.262H16.8625ZM22.0545 254.737C22.4628 253.904 22.9545 253.25 23.5295 252.775C24.1045 252.3 24.7962 252.062 25.6045 252.062C25.8795 252.062 26.1378 252.096 26.3795 252.162C26.6295 252.221 26.8462 252.312 27.0295 252.438L26.867 254.275C26.8087 254.5 26.6712 254.612 26.4545 254.612C26.3378 254.612 26.1628 254.592 25.9295 254.55C25.6962 254.5 25.4462 254.475 25.1795 254.475C24.7878 254.475 24.442 254.533 24.142 254.65C23.842 254.758 23.5712 254.925 23.3295 255.15C23.0962 255.367 22.8878 255.637 22.7045 255.962C22.5212 256.279 22.3503 256.642 22.192 257.05V265H19.7545V252.3H21.1545C21.4212 252.3 21.6003 252.35 21.692 252.45C21.792 252.542 21.8628 252.708 21.9045 252.95L22.0545 254.737ZM35.5395 259.362C34.5478 259.396 33.7061 259.475 33.0145 259.6C32.3228 259.717 31.7603 259.875 31.327 260.075C30.8936 260.275 30.5811 260.512 30.3895 260.787C30.1978 261.054 30.102 261.354 30.102 261.687C30.102 262.004 30.152 262.279 30.252 262.512C30.3603 262.737 30.502 262.925 30.677 263.075C30.8603 263.217 31.0728 263.321 31.3145 263.387C31.5561 263.454 31.8186 263.487 32.102 263.487C32.477 263.487 32.8186 263.45 33.127 263.375C33.4436 263.3 33.7395 263.196 34.0145 263.062C34.2895 262.921 34.552 262.75 34.802 262.55C35.052 262.35 35.2978 262.121 35.5395 261.862V259.362ZM28.3895 254.075C29.0978 253.4 29.8645 252.896 30.6895 252.562C31.5228 252.229 32.4353 252.062 33.427 252.062C34.152 252.062 34.7936 252.183 35.352 252.425C35.9103 252.658 36.3811 252.987 36.7645 253.412C37.1478 253.837 37.4353 254.346 37.627 254.937C37.827 255.529 37.927 256.183 37.927 256.9V265H36.8395C36.5978 265 36.4145 264.962 36.2895 264.887C36.1645 264.804 36.0645 264.654 35.9895 264.437L35.727 263.325C35.402 263.625 35.0811 263.892 34.7645 264.125C34.4478 264.35 34.1145 264.546 33.7645 264.712C33.4228 264.871 33.0561 264.992 32.6645 265.075C32.2728 265.158 31.8395 265.2 31.3645 265.2C30.8645 265.2 30.3936 265.133 29.952 265C29.5186 264.858 29.1395 264.646 28.8145 264.362C28.4895 264.079 28.2311 263.725 28.0395 263.3C27.8561 262.875 27.7645 262.379 27.7645 261.812C27.7645 261.312 27.8978 260.833 28.1645 260.375C28.4395 259.908 28.8811 259.492 29.4895 259.125C30.1061 258.758 30.9061 258.458 31.8895 258.225C32.8811 257.992 34.0978 257.858 35.5395 257.825V256.9C35.5395 255.942 35.3353 255.225 34.927 254.75C34.5186 254.275 33.9186 254.037 33.127 254.037C32.5936 254.037 32.1436 254.104 31.777 254.237C31.4186 254.371 31.1061 254.521 30.8395 254.687C30.5811 254.846 30.352 254.992 30.152 255.125C29.9603 255.258 29.7603 255.325 29.552 255.325C29.3853 255.325 29.2395 255.279 29.1145 255.187C28.9978 255.096 28.902 254.987 28.827 254.862L28.3895 254.075ZM43.6275 261.875C44.0275 262.4 44.4567 262.767 44.915 262.975C45.3817 263.183 45.9025 263.287 46.4775 263.287C47.5942 263.287 48.4567 262.887 49.065 262.087C49.6817 261.279 49.99 260.104 49.99 258.562C49.99 257.754 49.9192 257.067 49.7775 256.5C49.6442 255.925 49.4442 255.458 49.1775 255.1C48.9192 254.733 48.5984 254.467 48.215 254.3C47.8317 254.125 47.3984 254.037 46.915 254.037C46.2067 254.037 45.59 254.196 45.065 254.512C44.5484 254.829 44.0692 255.279 43.6275 255.862V261.875ZM43.5025 254.2C43.7692 253.883 44.0525 253.596 44.3525 253.337C44.6609 253.071 44.99 252.846 45.34 252.662C45.69 252.471 46.0609 252.325 46.4525 252.225C46.8525 252.117 47.2775 252.062 47.7275 252.062C48.4525 252.062 49.1067 252.204 49.69 252.487C50.2817 252.771 50.7859 253.187 51.2025 253.737C51.6192 254.287 51.94 254.967 52.165 255.775C52.3984 256.583 52.515 257.512 52.515 258.562C52.515 259.504 52.3859 260.379 52.1275 261.187C51.8775 261.987 51.515 262.683 51.04 263.275C50.5734 263.867 49.9984 264.333 49.315 264.675C48.64 265.008 47.8775 265.175 47.0275 265.175C46.2692 265.175 45.6192 265.05 45.0775 264.8C44.5359 264.55 44.0525 264.2 43.6275 263.75V269.263H41.19V252.3H42.6525C42.9942 252.3 43.2067 252.462 43.29 252.787L43.5025 254.2ZM57.69 253.912C58.2234 253.371 58.8109 252.933 59.4525 252.6C60.1025 252.267 60.8484 252.1 61.69 252.1C62.39 252.1 63.0025 252.217 63.5275 252.45C64.0609 252.683 64.5067 253.012 64.865 253.437C65.2234 253.854 65.4942 254.358 65.6775 254.95C65.8609 255.542 65.9525 256.196 65.9525 256.912V265H63.5025V256.912C63.5025 256.004 63.2942 255.3 62.8775 254.8C62.4609 254.292 61.8234 254.037 60.965 254.037C60.34 254.037 59.7525 254.187 59.2025 254.487C58.6609 254.779 58.1567 255.179 57.69 255.687V265H55.2525V246.55H57.69V253.912ZM71.7918 252.3V265H69.3543V252.3H71.7918ZM72.2543 248.375C72.2543 248.6 72.2085 248.817 72.1168 249.025C72.0251 249.225 71.9001 249.404 71.7418 249.562C71.5918 249.712 71.4126 249.833 71.2043 249.925C70.996 250.008 70.7793 250.05 70.5543 250.05C70.3293 250.05 70.1168 250.008 69.9168 249.925C69.7168 249.833 69.5376 249.712 69.3793 249.562C69.2293 249.404 69.1085 249.225 69.0168 249.025C68.9335 248.817 68.8918 248.6 68.8918 248.375C68.8918 248.142 68.9335 247.925 69.0168 247.725C69.1085 247.517 69.2293 247.337 69.3793 247.187C69.5376 247.029 69.7168 246.908 69.9168 246.825C70.1168 246.733 70.3293 246.687 70.5543 246.687C70.7793 246.687 70.996 246.733 71.2043 246.825C71.4126 246.908 71.5918 247.029 71.7418 247.187C71.9001 247.337 72.0251 247.517 72.1168 247.725C72.2085 247.925 72.2543 248.142 72.2543 248.375ZM84.2209 254.675C84.1459 254.767 84.0709 254.842 83.9959 254.9C83.9292 254.95 83.8292 254.975 83.6959 254.975C83.5626 254.975 83.4209 254.925 83.2709 254.825C83.1292 254.717 82.9459 254.604 82.7209 254.487C82.5042 254.362 82.2376 254.25 81.9209 254.15C81.6126 254.042 81.2292 253.987 80.7709 253.987C80.1709 253.987 79.6417 254.096 79.1834 254.312C78.7251 254.529 78.3417 254.837 78.0334 255.237C77.7334 255.637 77.5042 256.125 77.3459 256.7C77.1876 257.275 77.1084 257.921 77.1084 258.637C77.1084 259.379 77.1917 260.042 77.3584 260.625C77.5251 261.2 77.7626 261.687 78.0709 262.087C78.3792 262.479 78.7542 262.779 79.1959 262.987C79.6376 263.187 80.1292 263.287 80.6709 263.287C81.1959 263.287 81.6292 263.225 81.9709 263.1C82.3126 262.967 82.5959 262.825 82.8209 262.675C83.0459 262.525 83.2334 262.387 83.3834 262.262C83.5334 262.129 83.6876 262.062 83.8459 262.062C84.0459 262.062 84.2001 262.137 84.3084 262.287L85.0084 263.187C84.7167 263.546 84.3876 263.85 84.0209 264.1C83.6626 264.35 83.2792 264.554 82.8709 264.712C82.4626 264.871 82.0334 264.987 81.5834 265.063C81.1417 265.138 80.6917 265.175 80.2334 265.175C79.4417 265.175 78.7001 265.029 78.0084 264.737C77.3251 264.446 76.7292 264.021 76.2209 263.462C75.7209 262.904 75.3251 262.221 75.0334 261.412C74.7417 260.596 74.5959 259.671 74.5959 258.637C74.5959 257.696 74.7251 256.825 74.9834 256.025C75.2501 255.225 75.6376 254.537 76.1459 253.962C76.6626 253.379 77.2959 252.925 78.0459 252.6C78.7959 252.267 79.6542 252.1 80.6209 252.1C81.5292 252.1 82.3292 252.246 83.0209 252.537C83.7126 252.829 84.3292 253.242 84.8709 253.775L84.2209 254.675ZM109.77 256.025C109.77 257.367 109.553 258.587 109.12 259.687C108.695 260.787 108.09 261.733 107.307 262.525C106.524 263.308 105.586 263.917 104.495 264.35C103.403 264.783 102.19 265 100.857 265H94.107V247.05H100.857C102.19 247.05 103.403 247.267 104.495 247.7C105.586 248.133 106.524 248.746 107.307 249.537C108.09 250.321 108.695 251.267 109.12 252.375C109.553 253.475 109.77 254.692 109.77 256.025ZM107.045 256.025C107.045 254.958 106.899 254.004 106.607 253.162C106.315 252.312 105.899 251.596 105.357 251.012C104.824 250.421 104.174 249.971 103.407 249.662C102.649 249.354 101.799 249.2 100.857 249.2H96.782V262.85H100.857C101.799 262.85 102.649 262.696 103.407 262.387C104.174 262.079 104.824 261.633 105.357 261.05C105.899 260.458 106.315 259.742 106.607 258.9C106.899 258.058 107.045 257.1 107.045 256.025ZM120.867 257.237C120.867 256.754 120.796 256.308 120.655 255.9C120.521 255.492 120.321 255.137 120.055 254.837C119.788 254.537 119.463 254.304 119.08 254.137C118.696 253.971 118.255 253.887 117.755 253.887C116.73 253.887 115.921 254.183 115.33 254.775C114.746 255.367 114.376 256.187 114.217 257.237H120.867ZM122.88 263.187C122.58 263.537 122.234 263.842 121.842 264.1C121.451 264.35 121.034 264.554 120.592 264.712C120.151 264.871 119.692 264.987 119.217 265.063C118.751 265.138 118.288 265.175 117.83 265.175C116.955 265.175 116.142 265.029 115.392 264.737C114.651 264.437 114.005 264.004 113.455 263.438C112.913 262.862 112.488 262.154 112.18 261.312C111.88 260.462 111.73 259.487 111.73 258.387C111.73 257.504 111.867 256.683 112.142 255.925C112.417 255.158 112.809 254.492 113.317 253.925C113.834 253.358 114.463 252.912 115.205 252.587C115.946 252.262 116.78 252.1 117.705 252.1C118.48 252.1 119.192 252.229 119.842 252.487C120.501 252.737 121.067 253.104 121.542 253.587C122.017 254.071 122.388 254.667 122.655 255.375C122.93 256.083 123.067 256.892 123.067 257.8C123.067 258.175 123.026 258.429 122.942 258.562C122.859 258.687 122.705 258.75 122.48 258.75H114.155C114.18 259.508 114.288 260.171 114.48 260.737C114.671 261.296 114.934 261.762 115.267 262.137C115.609 262.512 116.013 262.792 116.48 262.975C116.946 263.158 117.467 263.25 118.042 263.25C118.584 263.25 119.051 263.187 119.442 263.062C119.842 262.937 120.184 262.804 120.467 262.662C120.759 262.512 121.001 262.375 121.192 262.25C121.392 262.125 121.567 262.062 121.717 262.062C121.917 262.062 122.071 262.137 122.18 262.287L122.88 263.187ZM133.175 254.487C133.108 254.596 133.037 254.675 132.962 254.725C132.887 254.767 132.791 254.787 132.675 254.787C132.541 254.787 132.391 254.742 132.225 254.65C132.066 254.558 131.87 254.458 131.637 254.35C131.412 254.242 131.145 254.142 130.837 254.05C130.529 253.958 130.162 253.912 129.737 253.912C129.387 253.912 129.066 253.958 128.775 254.05C128.491 254.133 128.25 254.254 128.05 254.412C127.85 254.562 127.695 254.746 127.587 254.962C127.479 255.171 127.425 255.396 127.425 255.637C127.425 255.954 127.516 256.217 127.7 256.425C127.891 256.633 128.137 256.812 128.437 256.962C128.745 257.112 129.091 257.25 129.475 257.375C129.866 257.492 130.262 257.617 130.662 257.75C131.07 257.883 131.466 258.037 131.85 258.212C132.241 258.379 132.587 258.592 132.887 258.85C133.195 259.1 133.441 259.404 133.625 259.762C133.816 260.121 133.912 260.558 133.912 261.075C133.912 261.667 133.804 262.217 133.587 262.725C133.379 263.225 133.066 263.658 132.65 264.025C132.241 264.392 131.733 264.679 131.125 264.887C130.516 265.096 129.82 265.2 129.037 265.2C128.162 265.2 127.354 265.054 126.612 264.762C125.87 264.471 125.25 264.1 124.75 263.65L125.325 262.712C125.391 262.596 125.475 262.508 125.575 262.45C125.675 262.383 125.808 262.35 125.975 262.35C126.133 262.35 126.295 262.408 126.462 262.525C126.629 262.642 126.829 262.771 127.062 262.912C127.295 263.046 127.579 263.171 127.912 263.287C128.245 263.396 128.662 263.45 129.162 263.45C129.579 263.45 129.941 263.4 130.25 263.3C130.558 263.192 130.812 263.05 131.012 262.875C131.22 262.692 131.375 262.483 131.475 262.25C131.575 262.017 131.625 261.771 131.625 261.512C131.625 261.179 131.529 260.904 131.337 260.687C131.154 260.462 130.908 260.271 130.6 260.112C130.3 259.954 129.954 259.817 129.562 259.7C129.17 259.583 128.77 259.458 128.362 259.325C127.954 259.192 127.554 259.037 127.162 258.862C126.77 258.687 126.42 258.467 126.112 258.2C125.812 257.933 125.566 257.608 125.375 257.225C125.191 256.842 125.1 256.375 125.1 255.825C125.1 255.333 125.2 254.862 125.4 254.412C125.608 253.962 125.904 253.567 126.287 253.225C126.679 252.883 127.158 252.612 127.725 252.412C128.3 252.204 128.954 252.1 129.687 252.1C130.529 252.1 131.287 252.233 131.962 252.5C132.645 252.767 133.229 253.133 133.712 253.6L133.175 254.487ZM139.101 252.3V265H136.664V252.3H139.101ZM139.564 248.375C139.564 248.6 139.518 248.817 139.426 249.025C139.335 249.225 139.21 249.404 139.051 249.562C138.901 249.712 138.722 249.833 138.514 249.925C138.306 250.008 138.089 250.05 137.864 250.05C137.639 250.05 137.426 250.008 137.226 249.925C137.026 249.833 136.847 249.712 136.689 249.562C136.539 249.404 136.418 249.225 136.326 249.025C136.243 248.817 136.201 248.6 136.201 248.375C136.201 248.142 136.243 247.925 136.326 247.725C136.418 247.517 136.539 247.337 136.689 247.187C136.847 247.029 137.026 246.908 137.226 246.825C137.426 246.733 137.639 246.687 137.864 246.687C138.089 246.687 138.306 246.733 138.514 246.825C138.722 246.908 138.901 247.029 139.051 247.187C139.21 247.337 139.335 247.517 139.426 247.725C139.518 247.925 139.564 248.142 139.564 248.375ZM147.093 258.662C147.526 258.662 147.905 258.604 148.23 258.487C148.564 258.371 148.839 258.208 149.055 258C149.28 257.783 149.447 257.525 149.555 257.225C149.672 256.925 149.73 256.596 149.73 256.237C149.73 255.504 149.505 254.921 149.055 254.487C148.614 254.046 147.96 253.825 147.093 253.825C146.235 253.825 145.58 254.046 145.13 254.487C144.689 254.921 144.468 255.504 144.468 256.237C144.468 256.596 144.522 256.925 144.63 257.225C144.747 257.517 144.914 257.771 145.13 257.987C145.355 258.196 145.63 258.362 145.955 258.487C146.289 258.604 146.668 258.662 147.093 258.662ZM150.98 265.663C150.98 265.363 150.897 265.125 150.73 264.95C150.564 264.767 150.335 264.625 150.043 264.525C149.76 264.417 149.426 264.342 149.043 264.3C148.66 264.25 148.255 264.212 147.83 264.187C147.414 264.162 146.985 264.142 146.543 264.125C146.101 264.1 145.676 264.058 145.268 264C144.835 264.217 144.476 264.479 144.193 264.787C143.918 265.096 143.78 265.458 143.78 265.875C143.78 266.142 143.847 266.392 143.98 266.625C144.122 266.858 144.335 267.058 144.618 267.225C144.91 267.4 145.272 267.533 145.705 267.625C146.147 267.725 146.672 267.775 147.28 267.775C147.88 267.775 148.41 267.721 148.868 267.613C149.326 267.513 149.71 267.367 150.018 267.175C150.335 266.992 150.572 266.771 150.73 266.513C150.897 266.254 150.98 265.971 150.98 265.663ZM153.455 252.775V253.687C153.455 253.987 153.268 254.175 152.893 254.25L151.53 254.45C151.647 254.708 151.739 254.983 151.805 255.275C151.872 255.558 151.905 255.858 151.905 256.175C151.905 256.8 151.785 257.367 151.543 257.875C151.301 258.375 150.968 258.804 150.543 259.162C150.118 259.521 149.61 259.796 149.018 259.987C148.435 260.179 147.793 260.275 147.093 260.275C146.518 260.275 145.98 260.212 145.48 260.087C145.23 260.237 145.039 260.404 144.905 260.587C144.78 260.762 144.718 260.937 144.718 261.112C144.718 261.404 144.839 261.621 145.08 261.762C145.33 261.904 145.651 262.008 146.043 262.075C146.443 262.133 146.897 262.171 147.405 262.187C147.922 262.204 148.443 262.233 148.968 262.275C149.501 262.308 150.022 262.375 150.53 262.475C151.047 262.567 151.501 262.721 151.893 262.937C152.293 263.146 152.614 263.437 152.855 263.812C153.105 264.179 153.23 264.658 153.23 265.25C153.23 265.8 153.093 266.333 152.818 266.85C152.551 267.367 152.16 267.825 151.643 268.225C151.126 268.625 150.497 268.946 149.755 269.188C149.014 269.429 148.172 269.55 147.23 269.55C146.289 269.55 145.468 269.458 144.768 269.275C144.076 269.092 143.497 268.846 143.03 268.538C142.572 268.229 142.226 267.871 141.993 267.463C141.768 267.054 141.655 266.629 141.655 266.188C141.655 265.571 141.847 265.05 142.23 264.625C142.614 264.192 143.143 263.854 143.818 263.612C143.451 263.446 143.16 263.221 142.943 262.937C142.726 262.646 142.618 262.262 142.618 261.788C142.618 261.604 142.651 261.417 142.718 261.225C142.785 261.025 142.885 260.829 143.018 260.637C143.16 260.437 143.33 260.25 143.53 260.075C143.739 259.9 143.976 259.742 144.243 259.6C143.618 259.25 143.126 258.787 142.768 258.212C142.41 257.629 142.23 256.95 142.23 256.175C142.23 255.55 142.351 254.987 142.593 254.487C142.835 253.987 143.168 253.558 143.593 253.2C144.026 252.842 144.539 252.567 145.13 252.375C145.73 252.183 146.385 252.088 147.093 252.088C148.193 252.088 149.139 252.317 149.93 252.775H153.455ZM157.979 254.062C158.254 253.771 158.542 253.504 158.842 253.262C159.142 253.021 159.459 252.817 159.792 252.65C160.134 252.475 160.496 252.342 160.879 252.25C161.271 252.15 161.688 252.1 162.129 252.1C162.829 252.1 163.442 252.217 163.967 252.45C164.5 252.683 164.946 253.012 165.304 253.437C165.663 253.854 165.934 254.358 166.117 254.95C166.3 255.542 166.392 256.196 166.392 256.912V265H163.942V256.912C163.942 256.004 163.734 255.3 163.317 254.8C162.9 254.292 162.263 254.037 161.404 254.037C160.779 254.037 160.192 254.187 159.642 254.487C159.1 254.779 158.596 255.179 158.129 255.687V265H155.692V252.3H157.154C157.496 252.3 157.709 252.462 157.792 252.787L157.979 254.062Z" fill="#050C26"/>
<path d="M7.65 374.287C8.325 374.287 8.91667 374.2 9.425 374.025C9.94167 373.85 10.3708 373.604 10.7125 373.287C11.0625 372.962 11.325 372.579 11.5 372.137C11.675 371.687 11.7625 371.192 11.7625 370.65C11.7625 369.558 11.4208 368.7 10.7375 368.075C10.0625 367.45 9.03333 367.137 7.65 367.137H4.875V374.287H7.65ZM7.65 365.05C8.8 365.05 9.8 365.183 10.65 365.45C11.5 365.717 12.2042 366.096 12.7625 366.587C13.3208 367.071 13.7333 367.658 14 368.35C14.275 369.042 14.4125 369.808 14.4125 370.65C14.4125 371.492 14.2667 372.267 13.975 372.975C13.6833 373.675 13.2542 374.279 12.6875 374.787C12.1208 375.296 11.4125 375.692 10.5625 375.975C9.72083 376.25 8.75 376.387 7.65 376.387H4.875V383H2.2125V365.05H7.65ZM19.2135 371.912C19.7468 371.371 20.3343 370.933 20.976 370.6C21.626 370.267 22.3718 370.1 23.2135 370.1C23.9135 370.1 24.526 370.217 25.051 370.45C25.5843 370.683 26.0301 371.012 26.3885 371.437C26.7468 371.854 27.0176 372.358 27.201 372.95C27.3843 373.542 27.476 374.196 27.476 374.912V383H25.026V374.912C25.026 374.004 24.8176 373.3 24.401 372.8C23.9843 372.292 23.3468 372.037 22.4885 372.037C21.8635 372.037 21.276 372.187 20.726 372.487C20.1843 372.779 19.6801 373.179 19.2135 373.687V383H16.776V364.55H19.2135V371.912ZM36.1777 370.1C37.1111 370.1 37.9527 370.254 38.7027 370.562C39.4611 370.862 40.1027 371.3 40.6277 371.875C41.1611 372.442 41.5694 373.129 41.8527 373.937C42.1361 374.737 42.2777 375.637 42.2777 376.637C42.2777 377.637 42.1361 378.542 41.8527 379.35C41.5694 380.158 41.1611 380.846 40.6277 381.412C40.1027 381.979 39.4611 382.417 38.7027 382.725C37.9527 383.025 37.1111 383.175 36.1777 383.175C35.2361 383.175 34.3861 383.025 33.6277 382.725C32.8777 382.417 32.2361 381.979 31.7027 381.412C31.1694 380.846 30.7569 380.158 30.4652 379.35C30.1819 378.542 30.0402 377.637 30.0402 376.637C30.0402 375.637 30.1819 374.737 30.4652 373.937C30.7569 373.129 31.1694 372.442 31.7027 371.875C32.2361 371.3 32.8777 370.862 33.6277 370.562C34.3861 370.254 35.2361 370.1 36.1777 370.1ZM36.1777 381.275C37.3777 381.275 38.2736 380.871 38.8652 380.062C39.4569 379.254 39.7527 378.117 39.7527 376.65C39.7527 375.183 39.4569 374.046 38.8652 373.237C38.2736 372.421 37.3777 372.012 36.1777 372.012C34.9611 372.012 34.0527 372.421 33.4527 373.237C32.8611 374.046 32.5652 375.183 32.5652 376.65C32.5652 378.117 32.8611 379.254 33.4527 380.062C34.0527 380.871 34.9611 381.275 36.1777 381.275ZM48.7295 383.2C47.7045 383.2 46.9128 382.912 46.3545 382.337C45.8045 381.762 45.5295 380.942 45.5295 379.875V372.275H44.0545C43.9128 372.275 43.792 372.233 43.692 372.15C43.6003 372.058 43.5545 371.925 43.5545 371.75V370.762L45.617 370.475L46.167 366.687C46.2003 366.546 46.2628 366.437 46.3545 366.362C46.4545 366.279 46.5795 366.237 46.7295 366.237H47.967V370.5H51.567V372.275H47.967V379.712C47.967 380.212 48.0878 380.587 48.3295 380.837C48.5795 381.079 48.8962 381.2 49.2795 381.2C49.5045 381.2 49.6962 381.171 49.8545 381.112C50.0212 381.054 50.1628 380.992 50.2795 380.925C50.3962 380.85 50.4962 380.783 50.5795 380.725C50.6628 380.667 50.7378 380.637 50.8045 380.637C50.8878 380.637 50.9503 380.658 50.992 380.7C51.042 380.733 51.092 380.792 51.142 380.875L51.867 382.05C51.467 382.417 50.992 382.7 50.442 382.9C49.892 383.1 49.3212 383.2 48.7295 383.2ZM59.1514 370.1C60.0847 370.1 60.9264 370.254 61.6764 370.562C62.4347 370.862 63.0764 371.3 63.6014 371.875C64.1347 372.442 64.543 373.129 64.8264 373.937C65.1097 374.737 65.2514 375.637 65.2514 376.637C65.2514 377.637 65.1097 378.542 64.8264 379.35C64.543 380.158 64.1347 380.846 63.6014 381.412C63.0764 381.979 62.4347 382.417 61.6764 382.725C60.9264 383.025 60.0847 383.175 59.1514 383.175C58.2097 383.175 57.3597 383.025 56.6014 382.725C55.8514 382.417 55.2097 381.979 54.6764 381.412C54.143 380.846 53.7305 380.158 53.4389 379.35C53.1555 378.542 53.0139 377.637 53.0139 376.637C53.0139 375.637 53.1555 374.737 53.4389 373.937C53.7305 373.129 54.143 372.442 54.6764 371.875C55.2097 371.3 55.8514 370.862 56.6014 370.562C57.3597 370.254 58.2097 370.1 59.1514 370.1ZM59.1514 381.275C60.3514 381.275 61.2472 380.871 61.8389 380.062C62.4305 379.254 62.7264 378.117 62.7264 376.65C62.7264 375.183 62.4305 374.046 61.8389 373.237C61.2472 372.421 60.3514 372.012 59.1514 372.012C57.9347 372.012 57.0264 372.421 56.4264 373.237C55.8347 374.046 55.5389 375.183 55.5389 376.65C55.5389 378.117 55.8347 379.254 56.4264 380.062C57.0264 380.871 57.9347 381.275 59.1514 381.275ZM79.883 373.7C80.5663 373.7 81.1663 373.617 81.683 373.45C82.208 373.283 82.6455 373.05 82.9955 372.75C83.3455 372.442 83.608 372.079 83.783 371.662C83.958 371.237 84.0455 370.771 84.0455 370.262C84.0455 369.229 83.7038 368.45 83.0205 367.925C82.3455 367.4 81.3288 367.137 79.9705 367.137H77.458V373.7H79.883ZM88.258 383H85.883C85.408 383 85.0622 382.812 84.8455 382.437L80.408 376.212C80.2663 376.004 80.1122 375.858 79.9455 375.775C79.7788 375.683 79.5288 375.637 79.1955 375.637H77.458V383H74.7955V365.05H79.9705C81.1288 365.05 82.1247 365.171 82.958 365.412C83.7997 365.646 84.4913 365.983 85.033 366.425C85.583 366.858 85.9872 367.383 86.2455 368C86.5122 368.617 86.6455 369.308 86.6455 370.075C86.6455 370.7 86.5497 371.287 86.358 371.837C86.1663 372.387 85.883 372.883 85.508 373.325C85.1413 373.758 84.6913 374.133 84.158 374.45C83.6247 374.767 83.0205 375.008 82.3455 375.175C82.6788 375.375 82.9663 375.654 83.208 376.012L88.258 383ZM97.6494 375.237C97.6494 374.754 97.5786 374.308 97.4369 373.9C97.3036 373.492 97.1036 373.137 96.8369 372.837C96.5702 372.537 96.2452 372.304 95.8619 372.137C95.4786 371.971 95.0369 371.887 94.5369 371.887C93.5119 371.887 92.7036 372.183 92.1119 372.775C91.5286 373.367 91.1577 374.187 90.9994 375.237H97.6494ZM99.6619 381.187C99.3619 381.537 99.0161 381.842 98.6244 382.1C98.2327 382.35 97.8161 382.554 97.3744 382.712C96.9327 382.871 96.4744 382.987 95.9994 383.063C95.5327 383.138 95.0702 383.175 94.6119 383.175C93.7369 383.175 92.9244 383.029 92.1744 382.737C91.4327 382.437 90.7869 382.004 90.2369 381.438C89.6952 380.862 89.2702 380.154 88.9619 379.312C88.6619 378.462 88.5119 377.487 88.5119 376.387C88.5119 375.504 88.6494 374.683 88.9244 373.925C89.1994 373.158 89.5911 372.492 90.0994 371.925C90.6161 371.358 91.2452 370.912 91.9869 370.587C92.7286 370.262 93.5619 370.1 94.4869 370.1C95.2619 370.1 95.9744 370.229 96.6244 370.487C97.2827 370.737 97.8494 371.104 98.3244 371.587C98.7994 372.071 99.1702 372.667 99.4369 373.375C99.7119 374.083 99.8494 374.892 99.8494 375.8C99.8494 376.175 99.8077 376.429 99.7244 376.562C99.6411 376.687 99.4869 376.75 99.2619 376.75H90.9369C90.9619 377.508 91.0702 378.171 91.2619 378.737C91.4536 379.296 91.7161 379.762 92.0494 380.137C92.3911 380.512 92.7952 380.792 93.2619 380.975C93.7286 381.158 94.2494 381.25 94.8244 381.25C95.3661 381.25 95.8327 381.187 96.2244 381.062C96.6244 380.937 96.9661 380.804 97.2494 380.662C97.5411 380.512 97.7827 380.375 97.9744 380.25C98.1744 380.125 98.3494 380.062 98.4994 380.062C98.6994 380.062 98.8536 380.137 98.9619 380.287L99.6619 381.187ZM106.347 383.2C105.322 383.2 104.53 382.912 103.972 382.337C103.422 381.762 103.147 380.942 103.147 379.875V372.275H101.672C101.53 372.275 101.409 372.233 101.309 372.15C101.218 372.058 101.172 371.925 101.172 371.75V370.762L103.234 370.475L103.784 366.687C103.818 366.546 103.88 366.437 103.972 366.362C104.072 366.279 104.197 366.237 104.347 366.237H105.584V370.5H109.184V372.275H105.584V379.712C105.584 380.212 105.705 380.587 105.947 380.837C106.197 381.079 106.513 381.2 106.897 381.2C107.122 381.2 107.313 381.171 107.472 381.112C107.638 381.054 107.78 380.992 107.897 380.925C108.013 380.85 108.113 380.783 108.197 380.725C108.28 380.667 108.355 380.637 108.422 380.637C108.505 380.637 108.568 380.658 108.609 380.7C108.659 380.733 108.709 380.792 108.759 380.875L109.484 382.05C109.084 382.417 108.609 382.7 108.059 382.9C107.509 383.1 106.938 383.2 106.347 383.2ZM116.769 370.1C117.702 370.1 118.544 370.254 119.294 370.562C120.052 370.862 120.694 371.3 121.219 371.875C121.752 372.442 122.16 373.129 122.444 373.937C122.727 374.737 122.869 375.637 122.869 376.637C122.869 377.637 122.727 378.542 122.444 379.35C122.16 380.158 121.752 380.846 121.219 381.412C120.694 381.979 120.052 382.417 119.294 382.725C118.544 383.025 117.702 383.175 116.769 383.175C115.827 383.175 114.977 383.025 114.219 382.725C113.469 382.417 112.827 381.979 112.294 381.412C111.76 380.846 111.348 380.158 111.056 379.35C110.773 378.542 110.631 377.637 110.631 376.637C110.631 375.637 110.773 374.737 111.056 373.937C111.348 373.129 111.76 372.442 112.294 371.875C112.827 371.3 113.469 370.862 114.219 370.562C114.977 370.254 115.827 370.1 116.769 370.1ZM116.769 381.275C117.969 381.275 118.864 380.871 119.456 380.062C120.048 379.254 120.344 378.117 120.344 376.65C120.344 375.183 120.048 374.046 119.456 373.237C118.864 372.421 117.969 372.012 116.769 372.012C115.552 372.012 114.644 372.421 114.044 373.237C113.452 374.046 113.156 375.183 113.156 376.65C113.156 378.117 113.452 379.254 114.044 380.062C114.644 380.871 115.552 381.275 116.769 381.275ZM136.152 370.3V383H134.689C134.356 383 134.139 382.837 134.039 382.512L133.864 381.237C133.589 381.529 133.302 381.796 133.002 382.037C132.702 382.279 132.381 382.487 132.039 382.662C131.698 382.829 131.335 382.958 130.952 383.05C130.569 383.15 130.156 383.2 129.714 383.2C129.014 383.2 128.398 383.083 127.864 382.85C127.339 382.617 126.898 382.292 126.539 381.875C126.181 381.45 125.91 380.942 125.727 380.35C125.544 379.758 125.452 379.104 125.452 378.387V370.3H127.902V378.387C127.902 379.296 128.11 380.004 128.527 380.512C128.944 381.012 129.581 381.262 130.439 381.262C131.064 381.262 131.648 381.117 132.189 380.825C132.731 380.525 133.239 380.117 133.714 379.6V370.3H136.152ZM148.454 372.675C148.379 372.767 148.304 372.842 148.229 372.9C148.163 372.95 148.063 372.975 147.929 372.975C147.796 372.975 147.654 372.925 147.504 372.825C147.363 372.717 147.179 372.604 146.954 372.487C146.738 372.362 146.471 372.25 146.154 372.15C145.846 372.042 145.463 371.987 145.004 371.987C144.404 371.987 143.875 372.096 143.417 372.312C142.958 372.529 142.575 372.837 142.267 373.237C141.967 373.637 141.738 374.125 141.579 374.7C141.421 375.275 141.342 375.921 141.342 376.637C141.342 377.379 141.425 378.042 141.592 378.625C141.758 379.2 141.996 379.687 142.304 380.087C142.613 380.479 142.988 380.779 143.429 380.987C143.871 381.187 144.363 381.287 144.904 381.287C145.429 381.287 145.863 381.225 146.204 381.1C146.546 380.967 146.829 380.825 147.054 380.675C147.279 380.525 147.467 380.387 147.617 380.262C147.767 380.129 147.921 380.062 148.079 380.062C148.279 380.062 148.433 380.137 148.542 380.287L149.242 381.187C148.95 381.546 148.621 381.85 148.254 382.1C147.896 382.35 147.513 382.554 147.104 382.712C146.696 382.871 146.267 382.987 145.817 383.063C145.375 383.138 144.925 383.175 144.467 383.175C143.675 383.175 142.933 383.029 142.242 382.737C141.558 382.446 140.963 382.021 140.454 381.462C139.954 380.904 139.558 380.221 139.267 379.412C138.975 378.596 138.829 377.671 138.829 376.637C138.829 375.696 138.958 374.825 139.217 374.025C139.483 373.225 139.871 372.537 140.379 371.962C140.896 371.379 141.529 370.925 142.279 370.6C143.029 370.267 143.888 370.1 144.854 370.1C145.763 370.1 146.563 370.246 147.254 370.537C147.946 370.829 148.563 371.242 149.104 371.775L148.454 372.675ZM153.955 371.912C154.488 371.371 155.076 370.933 155.717 370.6C156.367 370.267 157.113 370.1 157.955 370.1C158.655 370.1 159.267 370.217 159.792 370.45C160.326 370.683 160.771 371.012 161.13 371.437C161.488 371.854 161.759 372.358 161.942 372.95C162.126 373.542 162.217 374.196 162.217 374.912V383H159.767V374.912C159.767 374.004 159.559 373.3 159.142 372.8C158.726 372.292 158.088 372.037 157.23 372.037C156.605 372.037 156.017 372.187 155.467 372.487C154.926 372.779 154.421 373.179 153.955 373.687V383H151.517V364.55H153.955V371.912ZM168.056 370.3V383H165.619V370.3H168.056ZM168.519 366.375C168.519 366.6 168.473 366.817 168.381 367.025C168.29 367.225 168.165 367.404 168.006 367.562C167.856 367.712 167.677 367.833 167.469 367.925C167.261 368.008 167.044 368.05 166.819 368.05C166.594 368.05 166.381 368.008 166.181 367.925C165.981 367.833 165.802 367.712 165.644 367.562C165.494 367.404 165.373 367.225 165.281 367.025C165.198 366.817 165.156 366.6 165.156 366.375C165.156 366.142 165.198 365.925 165.281 365.725C165.373 365.517 165.494 365.337 165.644 365.187C165.802 365.029 165.981 364.908 166.181 364.825C166.381 364.733 166.594 364.687 166.819 364.687C167.044 364.687 167.261 364.733 167.469 364.825C167.677 364.908 167.856 365.029 168.006 365.187C168.165 365.337 168.29 365.517 168.381 365.725C168.473 365.925 168.519 366.142 168.519 366.375ZM173.873 372.062C174.148 371.771 174.436 371.504 174.736 371.262C175.036 371.021 175.352 370.817 175.686 370.65C176.027 370.475 176.39 370.342 176.773 370.25C177.165 370.15 177.581 370.1 178.023 370.1C178.723 370.1 179.336 370.217 179.861 370.45C180.394 370.683 180.84 371.012 181.198 371.437C181.556 371.854 181.827 372.358 182.011 372.95C182.194 373.542 182.286 374.196 182.286 374.912V383H179.836V374.912C179.836 374.004 179.627 373.3 179.211 372.8C178.794 372.292 178.156 372.037 177.298 372.037C176.673 372.037 176.086 372.187 175.536 372.487C174.994 372.779 174.49 373.179 174.023 373.687V383H171.586V370.3H173.048C173.39 370.3 173.602 370.462 173.686 370.787L173.873 372.062ZM190.037 376.662C190.471 376.662 190.85 376.604 191.175 376.487C191.508 376.371 191.783 376.208 192 376C192.225 375.783 192.391 375.525 192.5 375.225C192.616 374.925 192.675 374.596 192.675 374.237C192.675 373.504 192.45 372.921 192 372.487C191.558 372.046 190.904 371.825 190.037 371.825C189.179 371.825 188.525 372.046 188.075 372.487C187.633 372.921 187.412 373.504 187.412 374.237C187.412 374.596 187.466 374.925 187.575 375.225C187.691 375.517 187.858 375.771 188.075 375.987C188.3 376.196 188.575 376.362 188.9 376.487C189.233 376.604 189.612 376.662 190.037 376.662ZM193.925 383.663C193.925 383.363 193.841 383.125 193.675 382.95C193.508 382.767 193.279 382.625 192.987 382.525C192.704 382.417 192.371 382.342 191.987 382.3C191.604 382.25 191.2 382.212 190.775 382.187C190.358 382.162 189.929 382.142 189.487 382.125C189.046 382.1 188.621 382.058 188.212 382C187.779 382.217 187.421 382.479 187.137 382.787C186.862 383.096 186.725 383.458 186.725 383.875C186.725 384.142 186.791 384.392 186.925 384.625C187.066 384.858 187.279 385.058 187.562 385.225C187.854 385.4 188.216 385.533 188.65 385.625C189.091 385.725 189.616 385.775 190.225 385.775C190.825 385.775 191.354 385.721 191.812 385.613C192.271 385.513 192.654 385.367 192.962 385.175C193.279 384.992 193.516 384.771 193.675 384.513C193.841 384.254 193.925 383.971 193.925 383.663ZM196.4 370.775V371.687C196.4 371.987 196.212 372.175 195.837 372.25L194.475 372.45C194.591 372.708 194.683 372.983 194.75 373.275C194.816 373.558 194.85 373.858 194.85 374.175C194.85 374.8 194.729 375.367 194.487 375.875C194.246 376.375 193.912 376.804 193.487 377.162C193.062 377.521 192.554 377.796 191.962 377.987C191.379 378.179 190.737 378.275 190.037 378.275C189.462 378.275 188.925 378.212 188.425 378.087C188.175 378.237 187.983 378.404 187.85 378.587C187.725 378.762 187.662 378.937 187.662 379.112C187.662 379.404 187.783 379.621 188.025 379.762C188.275 379.904 188.596 380.008 188.987 380.075C189.387 380.133 189.841 380.171 190.35 380.187C190.866 380.204 191.387 380.233 191.912 380.275C192.446 380.308 192.966 380.375 193.475 380.475C193.991 380.567 194.446 380.721 194.837 380.937C195.237 381.146 195.558 381.437 195.8 381.812C196.05 382.179 196.175 382.658 196.175 383.25C196.175 383.8 196.037 384.333 195.762 384.85C195.496 385.367 195.104 385.825 194.587 386.225C194.071 386.625 193.441 386.946 192.7 387.188C191.958 387.429 191.116 387.55 190.175 387.55C189.233 387.55 188.412 387.458 187.712 387.275C187.021 387.092 186.441 386.846 185.975 386.538C185.516 386.229 185.171 385.871 184.937 385.463C184.712 385.054 184.6 384.629 184.6 384.188C184.6 383.571 184.791 383.05 185.175 382.625C185.558 382.192 186.087 381.854 186.762 381.612C186.396 381.446 186.104 381.221 185.887 380.937C185.671 380.646 185.562 380.262 185.562 379.788C185.562 379.604 185.596 379.417 185.662 379.225C185.729 379.025 185.829 378.829 185.962 378.637C186.104 378.437 186.275 378.25 186.475 378.075C186.683 377.9 186.921 377.742 187.187 377.6C186.562 377.25 186.071 376.787 185.712 376.212C185.354 375.629 185.175 374.95 185.175 374.175C185.175 373.55 185.296 372.987 185.537 372.487C185.779 371.987 186.112 371.558 186.537 371.2C186.971 370.842 187.483 370.567 188.075 370.375C188.675 370.183 189.329 370.088 190.037 370.088C191.137 370.088 192.083 370.317 192.875 370.775H196.4Z" fill="#050C26"/>
<path d="M398.25 37.2625C398.817 37.2625 399.321 37.1833 399.763 37.025C400.204 36.8667 400.579 36.6458 400.888 36.3625C401.196 36.0708 401.429 35.725 401.588 35.325C401.746 34.925 401.825 34.4875 401.825 34.0125C401.825 33.4292 401.729 32.9292 401.538 32.5125C401.346 32.0875 401.088 31.7417 400.763 31.475C400.438 31.2 400.058 31 399.625 30.875C399.192 30.7417 398.733 30.675 398.25 30.675C397.758 30.675 397.296 30.7417 396.863 30.875C396.429 31 396.05 31.2 395.725 31.475C395.4 31.7417 395.142 32.0875 394.95 32.5125C394.767 32.9292 394.675 33.4292 394.675 34.0125C394.675 34.4875 394.754 34.925 394.913 35.325C395.071 35.725 395.304 36.0708 395.613 36.3625C395.921 36.6458 396.296 36.8667 396.738 37.025C397.179 37.1833 397.683 37.2625 398.25 37.2625ZM398.25 22.725C397.733 22.725 397.279 22.8042 396.888 22.9625C396.504 23.1125 396.183 23.3208 395.925 23.5875C395.667 23.8542 395.471 24.1625 395.338 24.5125C395.213 24.8625 395.15 25.2375 395.15 25.6375C395.15 26.0292 395.204 26.4125 395.313 26.7875C395.429 27.1542 395.608 27.4833 395.85 27.775C396.1 28.0583 396.421 28.2875 396.813 28.4625C397.204 28.6375 397.683 28.725 398.25 28.725C398.808 28.725 399.283 28.6375 399.675 28.4625C400.075 28.2875 400.396 28.0583 400.638 27.775C400.888 27.4833 401.067 27.1542 401.175 26.7875C401.292 26.4125 401.35 26.0292 401.35 25.6375C401.35 25.2375 401.283 24.8625 401.15 24.5125C401.025 24.1625 400.833 23.8542 400.575 23.5875C400.317 23.3208 399.992 23.1125 399.6 22.9625C399.217 22.8042 398.767 22.725 398.25 22.725ZM400.938 29.6375C402.054 29.9708 402.9 30.5083 403.475 31.25C404.058 31.9917 404.35 32.9292 404.35 34.0625C404.35 34.8458 404.2 35.5542 403.9 36.1875C403.608 36.8208 403.192 37.3625 402.65 37.8125C402.117 38.2542 401.475 38.5958 400.725 38.8375C399.975 39.0792 399.15 39.2 398.25 39.2C397.35 39.2 396.525 39.0792 395.775 38.8375C395.025 38.5958 394.379 38.2542 393.838 37.8125C393.304 37.3625 392.888 36.8208 392.588 36.1875C392.296 35.5542 392.15 34.8458 392.15 34.0625C392.15 32.9292 392.438 31.9917 393.013 31.25C393.596 30.5083 394.446 29.9708 395.563 29.6375C394.638 29.2875 393.942 28.7667 393.475 28.075C393.008 27.375 392.775 26.5458 392.775 25.5875C392.775 24.9208 392.904 24.3 393.163 23.725C393.429 23.1417 393.8 22.6375 394.275 22.2125C394.758 21.7875 395.338 21.4542 396.013 21.2125C396.688 20.9708 397.433 20.85 398.25 20.85C399.067 20.85 399.813 20.9708 400.488 21.2125C401.163 21.4542 401.738 21.7875 402.213 22.2125C402.696 22.6375 403.067 23.1417 403.325 23.725C403.592 24.3 403.725 24.9208 403.725 25.5875C403.725 26.5458 403.492 27.375 403.025 28.075C402.558 28.7667 401.863 29.2875 400.938 29.6375ZM419.277 30.025C419.277 31.5917 419.106 32.95 418.764 34.1C418.431 35.25 417.969 36.2042 417.377 36.9625C416.794 37.7125 416.102 38.2708 415.302 38.6375C414.51 39.0042 413.656 39.1875 412.739 39.1875C411.823 39.1875 410.964 39.0042 410.164 38.6375C409.373 38.2708 408.685 37.7125 408.102 36.9625C407.519 36.2042 407.06 35.25 406.727 34.1C406.394 32.95 406.227 31.5917 406.227 30.025C406.227 28.4583 406.394 27.1 406.727 25.95C407.06 24.7917 407.519 23.8375 408.102 23.0875C408.685 22.3292 409.373 21.7667 410.164 21.4C410.964 21.0333 411.823 20.85 412.739 20.85C413.656 20.85 414.51 21.0333 415.302 21.4C416.102 21.7667 416.794 22.3292 417.377 23.0875C417.969 23.8375 418.431 24.7917 418.764 25.95C419.106 27.1 419.277 28.4583 419.277 30.025ZM416.752 30.025C416.752 28.675 416.639 27.5458 416.414 26.6375C416.198 25.7292 415.902 25 415.527 24.45C415.16 23.8917 414.735 23.4958 414.252 23.2625C413.769 23.0292 413.264 22.9125 412.739 22.9125C412.214 22.9125 411.71 23.0292 411.227 23.2625C410.744 23.4958 410.314 23.8917 409.939 24.45C409.573 25 409.281 25.7292 409.064 26.6375C408.848 27.5458 408.739 28.675 408.739 30.025C408.739 31.375 408.848 32.5042 409.064 33.4125C409.281 34.3208 409.573 35.05 409.939 35.6C410.314 36.15 410.744 36.5417 411.227 36.775C411.71 37.0083 412.214 37.125 412.739 37.125C413.264 37.125 413.769 37.0083 414.252 36.775C414.735 36.5417 415.16 36.15 415.527 35.6C415.902 35.05 416.198 34.3208 416.414 33.4125C416.639 32.5042 416.752 31.375 416.752 30.025ZM429.104 25.3875C429.104 26.0875 428.991 26.7125 428.766 27.2625C428.55 27.8125 428.258 28.2792 427.891 28.6625C427.525 29.0375 427.096 29.3292 426.604 29.5375C426.121 29.7375 425.612 29.8375 425.079 29.8375C424.504 29.8375 423.971 29.7375 423.479 29.5375C422.996 29.3292 422.575 29.0375 422.216 28.6625C421.858 28.2792 421.575 27.8125 421.366 27.2625C421.166 26.7125 421.066 26.0875 421.066 25.3875C421.066 24.6708 421.166 24.0333 421.366 23.475C421.575 22.9167 421.858 22.4458 422.216 22.0625C422.575 21.6708 422.996 21.375 423.479 21.175C423.971 20.9667 424.504 20.8625 425.079 20.8625C425.654 20.8625 426.183 20.9667 426.666 21.175C427.158 21.375 427.583 21.6708 427.941 22.0625C428.308 22.4458 428.591 22.9167 428.791 23.475C429 24.0333 429.104 24.6708 429.104 25.3875ZM427.204 25.3875C427.204 24.8542 427.146 24.4042 427.029 24.0375C426.921 23.6625 426.771 23.3625 426.579 23.1375C426.387 22.9042 426.162 22.7375 425.904 22.6375C425.646 22.5292 425.371 22.475 425.079 22.475C424.787 22.475 424.512 22.5292 424.254 22.6375C423.996 22.7375 423.771 22.9042 423.579 23.1375C423.396 23.3625 423.25 23.6625 423.141 24.0375C423.033 24.4042 422.979 24.8542 422.979 25.3875C422.979 25.9042 423.033 26.3458 423.141 26.7125C423.25 27.0708 423.396 27.3625 423.579 27.5875C423.771 27.8125 423.996 27.975 424.254 28.075C424.512 28.175 424.787 28.225 425.079 28.225C425.371 28.225 425.646 28.175 425.904 28.075C426.162 27.975 426.387 27.8125 426.579 27.5875C426.771 27.3625 426.921 27.0708 427.029 26.7125C427.146 26.3458 427.204 25.9042 427.204 25.3875ZM435.354 21.45C435.446 21.3417 435.55 21.25 435.666 21.175C435.791 21.0917 435.962 21.05 436.179 21.05H437.941L424.766 38.6125C424.675 38.7292 424.566 38.825 424.441 38.9C424.316 38.9667 424.166 39 423.991 39H422.179L435.354 21.45ZM439.091 34.7625C439.091 35.4625 438.979 36.0875 438.754 36.6375C438.537 37.1875 438.246 37.6542 437.879 38.0375C437.512 38.4125 437.083 38.7042 436.591 38.9125C436.108 39.1125 435.6 39.2125 435.066 39.2125C434.491 39.2125 433.958 39.1125 433.466 38.9125C432.983 38.7042 432.562 38.4125 432.204 38.0375C431.846 37.6542 431.562 37.1875 431.354 36.6375C431.154 36.0875 431.054 35.4625 431.054 34.7625C431.054 34.0458 431.154 33.4083 431.354 32.85C431.562 32.2917 431.846 31.8208 432.204 31.4375C432.562 31.0458 432.983 30.75 433.466 30.55C433.958 30.35 434.491 30.25 435.066 30.25C435.641 30.25 436.171 30.35 436.654 30.55C437.146 30.75 437.571 31.0458 437.929 31.4375C438.296 31.8208 438.579 32.2917 438.779 32.85C438.987 33.4083 439.091 34.0458 439.091 34.7625ZM437.191 34.7625C437.191 34.2292 437.133 33.7792 437.016 33.4125C436.908 33.0458 436.758 32.75 436.566 32.525C436.375 32.2917 436.15 32.125 435.891 32.025C435.633 31.9167 435.358 31.8625 435.066 31.8625C434.766 31.8625 434.487 31.9167 434.229 32.025C433.979 32.125 433.758 32.2917 433.566 32.525C433.383 32.75 433.237 33.0458 433.129 33.4125C433.021 33.7792 432.966 34.2292 432.966 34.7625C432.966 35.2875 433.021 35.7292 433.129 36.0875C433.237 36.4458 433.383 36.7375 433.566 36.9625C433.758 37.1875 433.979 37.35 434.229 37.45C434.487 37.55 434.766 37.6 435.066 37.6C435.358 37.6 435.633 37.55 435.891 37.45C436.15 37.35 436.375 37.1875 436.566 36.9625C436.758 36.7375 436.908 36.4458 437.016 36.0875C437.133 35.7292 437.191 35.2875 437.191 34.7625Z" fill="#E41A1A"/>
<path d="M414.688 144.35C414.688 145.458 414.988 146.312 415.588 146.912C416.188 147.512 417.021 147.812 418.088 147.812C418.663 147.812 419.171 147.721 419.613 147.537C420.054 147.346 420.425 147.096 420.725 146.787C421.033 146.471 421.267 146.108 421.425 145.7C421.583 145.283 421.663 144.85 421.663 144.4C421.663 143.858 421.575 143.371 421.4 142.938C421.233 142.496 420.996 142.125 420.688 141.825C420.379 141.517 420.013 141.283 419.588 141.125C419.171 140.958 418.708 140.875 418.2 140.875C417.675 140.875 417.196 140.962 416.763 141.137C416.329 141.304 415.958 141.542 415.65 141.85C415.342 142.158 415.104 142.525 414.938 142.95C414.771 143.375 414.688 143.842 414.688 144.35ZM419.613 149.9C419.938 149.475 420.242 149.058 420.525 148.65C420.075 148.992 419.571 149.25 419.013 149.425C418.463 149.6 417.875 149.687 417.25 149.687C416.592 149.687 415.958 149.575 415.35 149.35C414.75 149.125 414.217 148.796 413.75 148.362C413.292 147.921 412.925 147.379 412.65 146.737C412.375 146.096 412.238 145.358 412.238 144.525C412.238 143.742 412.383 143.004 412.675 142.312C412.967 141.621 413.375 141.021 413.9 140.512C414.433 139.996 415.067 139.592 415.8 139.3C416.542 139 417.354 138.85 418.238 138.85C419.113 138.85 419.904 138.992 420.613 139.275C421.329 139.558 421.938 139.958 422.438 140.475C422.938 140.983 423.325 141.596 423.6 142.312C423.875 143.029 424.013 143.817 424.013 144.675C424.013 145.2 423.963 145.7 423.863 146.175C423.771 146.65 423.633 147.112 423.45 147.562C423.275 148.012 423.058 148.458 422.8 148.9C422.55 149.333 422.263 149.779 421.938 150.237L417.625 156.425C417.508 156.592 417.338 156.729 417.113 156.837C416.896 156.946 416.646 157 416.363 157H414.125L419.613 149.9ZM439.277 148.025C439.277 149.592 439.106 150.95 438.764 152.1C438.431 153.25 437.969 154.204 437.377 154.962C436.794 155.712 436.102 156.271 435.302 156.637C434.51 157.004 433.656 157.188 432.739 157.188C431.823 157.188 430.964 157.004 430.164 156.637C429.373 156.271 428.685 155.712 428.102 154.962C427.519 154.204 427.06 153.25 426.727 152.1C426.394 150.95 426.227 149.592 426.227 148.025C426.227 146.458 426.394 145.1 426.727 143.95C427.06 142.792 427.519 141.837 428.102 141.087C428.685 140.329 429.373 139.767 430.164 139.4C430.964 139.033 431.823 138.85 432.739 138.85C433.656 138.85 434.51 139.033 435.302 139.4C436.102 139.767 436.794 140.329 437.377 141.087C437.969 141.837 438.431 142.792 438.764 143.95C439.106 145.1 439.277 146.458 439.277 148.025ZM436.752 148.025C436.752 146.675 436.639 145.546 436.414 144.637C436.198 143.729 435.902 143 435.527 142.45C435.16 141.892 434.735 141.496 434.252 141.262C433.769 141.029 433.264 140.912 432.739 140.912C432.214 140.912 431.71 141.029 431.227 141.262C430.744 141.496 430.314 141.892 429.939 142.45C429.573 143 429.281 143.729 429.064 144.637C428.848 145.546 428.739 146.675 428.739 148.025C428.739 149.375 428.848 150.504 429.064 151.412C429.281 152.321 429.573 153.05 429.939 153.6C430.314 154.15 430.744 154.542 431.227 154.775C431.71 155.008 432.214 155.125 432.739 155.125C433.264 155.125 433.769 155.008 434.252 154.775C434.735 154.542 435.16 154.15 435.527 153.6C435.902 153.05 436.198 152.321 436.414 151.412C436.639 150.504 436.752 149.375 436.752 148.025ZM449.104 143.387C449.104 144.087 448.991 144.712 448.766 145.262C448.55 145.812 448.258 146.279 447.891 146.662C447.525 147.037 447.096 147.329 446.604 147.537C446.121 147.737 445.612 147.837 445.079 147.837C444.504 147.837 443.971 147.737 443.479 147.537C442.996 147.329 442.575 147.037 442.216 146.662C441.858 146.279 441.575 145.812 441.366 145.262C441.166 144.712 441.066 144.087 441.066 143.387C441.066 142.671 441.166 142.033 441.366 141.475C441.575 140.917 441.858 140.446 442.216 140.062C442.575 139.671 442.996 139.375 443.479 139.175C443.971 138.967 444.504 138.862 445.079 138.862C445.654 138.862 446.183 138.967 446.666 139.175C447.158 139.375 447.583 139.671 447.941 140.062C448.308 140.446 448.591 140.917 448.791 141.475C449 142.033 449.104 142.671 449.104 143.387ZM447.204 143.387C447.204 142.854 447.146 142.404 447.029 142.037C446.921 141.662 446.771 141.362 446.579 141.137C446.387 140.904 446.162 140.737 445.904 140.637C445.646 140.529 445.371 140.475 445.079 140.475C444.787 140.475 444.512 140.529 444.254 140.637C443.996 140.737 443.771 140.904 443.579 141.137C443.396 141.362 443.25 141.662 443.141 142.037C443.033 142.404 442.979 142.854 442.979 143.387C442.979 143.904 443.033 144.346 443.141 144.712C443.25 145.071 443.396 145.362 443.579 145.587C443.771 145.812 443.996 145.975 444.254 146.075C444.512 146.175 444.787 146.225 445.079 146.225C445.371 146.225 445.646 146.175 445.904 146.075C446.162 145.975 446.387 145.812 446.579 145.587C446.771 145.362 446.921 145.071 447.029 144.712C447.146 144.346 447.204 143.904 447.204 143.387ZM455.354 139.45C455.446 139.342 455.55 139.25 455.666 139.175C455.791 139.092 455.962 139.05 456.179 139.05H457.941L444.766 156.612C444.675 156.729 444.566 156.825 444.441 156.9C444.316 156.967 444.166 157 443.991 157H442.179L455.354 139.45ZM459.091 152.762C459.091 153.462 458.979 154.087 458.754 154.637C458.537 155.187 458.246 155.654 457.879 156.037C457.512 156.412 457.083 156.704 456.591 156.912C456.108 157.113 455.6 157.213 455.066 157.213C454.491 157.213 453.958 157.113 453.466 156.912C452.983 156.704 452.562 156.412 452.204 156.037C451.846 155.654 451.562 155.187 451.354 154.637C451.154 154.087 451.054 153.462 451.054 152.762C451.054 152.046 451.154 151.408 451.354 150.85C451.562 150.292 451.846 149.821 452.204 149.437C452.562 149.046 452.983 148.75 453.466 148.55C453.958 148.35 454.491 148.25 455.066 148.25C455.641 148.25 456.171 148.35 456.654 148.55C457.146 148.75 457.571 149.046 457.929 149.437C458.296 149.821 458.579 150.292 458.779 150.85C458.987 151.408 459.091 152.046 459.091 152.762ZM457.191 152.762C457.191 152.229 457.133 151.779 457.016 151.412C456.908 151.046 456.758 150.75 456.566 150.525C456.375 150.292 456.15 150.125 455.891 150.025C455.633 149.917 455.358 149.862 455.066 149.862C454.766 149.862 454.487 149.917 454.229 150.025C453.979 150.125 453.758 150.292 453.566 150.525C453.383 150.75 453.237 151.046 453.129 151.412C453.021 151.779 452.966 152.229 452.966 152.762C452.966 153.287 453.021 153.729 453.129 154.087C453.237 154.446 453.383 154.737 453.566 154.962C453.758 155.187 453.979 155.35 454.229 155.45C454.487 155.55 454.766 155.6 455.066 155.6C455.358 155.6 455.633 155.55 455.891 155.45C456.15 155.35 456.375 155.187 456.566 154.962C456.758 154.737 456.908 154.446 457.016 154.087C457.133 153.729 457.191 153.287 457.191 152.762Z" fill="#DA5A12"/>
<path d="M374.55 257.05V258.137C374.55 258.454 374.513 258.712 374.438 258.912C374.371 259.104 374.304 259.271 374.238 259.412L366.963 274.137C366.846 274.379 366.683 274.583 366.475 274.75C366.267 274.917 365.988 275 365.638 275H363.888L371.275 260.487C371.4 260.254 371.525 260.042 371.65 259.85C371.775 259.65 371.913 259.467 372.063 259.3H362.888C362.729 259.3 362.592 259.242 362.475 259.125C362.358 259.008 362.3 258.871 362.3 258.712V257.05H374.55ZM380.164 263.75C381.081 263.558 381.91 263.462 382.652 263.462C383.585 263.462 384.41 263.604 385.127 263.887C385.844 264.162 386.444 264.546 386.927 265.037C387.419 265.521 387.785 266.096 388.027 266.762C388.277 267.421 388.402 268.137 388.402 268.912C388.402 269.862 388.235 270.725 387.902 271.5C387.569 272.275 387.11 272.937 386.527 273.487C385.944 274.037 385.252 274.462 384.452 274.762C383.66 275.054 382.806 275.2 381.889 275.2C381.348 275.2 380.831 275.146 380.339 275.038C379.856 274.929 379.402 274.787 378.977 274.612C378.552 274.429 378.156 274.221 377.789 273.987C377.431 273.754 377.11 273.508 376.827 273.25L377.577 272.2C377.735 271.967 377.948 271.85 378.214 271.85C378.389 271.85 378.581 271.917 378.789 272.05C379.006 272.175 379.26 272.317 379.552 272.475C379.844 272.633 380.189 272.779 380.589 272.912C380.989 273.037 381.464 273.1 382.014 273.1C382.623 273.1 383.169 273.004 383.652 272.812C384.144 272.612 384.556 272.333 384.889 271.975C385.231 271.617 385.489 271.187 385.664 270.687C385.848 270.187 385.939 269.633 385.939 269.025C385.939 268.483 385.86 267.996 385.702 267.562C385.544 267.129 385.306 266.758 384.989 266.45C384.673 266.142 384.277 265.908 383.802 265.75C383.327 265.583 382.773 265.5 382.139 265.5C381.256 265.5 380.314 265.658 379.314 265.975L377.777 265.525L379.239 257.05H387.839V258.112C387.839 258.462 387.727 258.75 387.502 258.975C387.285 259.192 386.919 259.3 386.402 259.3H380.939L380.164 263.75ZM399.104 261.387C399.104 262.087 398.991 262.712 398.766 263.262C398.55 263.812 398.258 264.279 397.891 264.662C397.525 265.037 397.096 265.329 396.604 265.537C396.121 265.737 395.612 265.837 395.079 265.837C394.504 265.837 393.971 265.737 393.479 265.537C392.996 265.329 392.575 265.037 392.216 264.662C391.858 264.279 391.575 263.812 391.366 263.262C391.166 262.712 391.066 262.087 391.066 261.387C391.066 260.671 391.166 260.033 391.366 259.475C391.575 258.917 391.858 258.446 392.216 258.062C392.575 257.671 392.996 257.375 393.479 257.175C393.971 256.967 394.504 256.862 395.079 256.862C395.654 256.862 396.183 256.967 396.666 257.175C397.158 257.375 397.583 257.671 397.941 258.062C398.308 258.446 398.591 258.917 398.791 259.475C399 260.033 399.104 260.671 399.104 261.387ZM397.204 261.387C397.204 260.854 397.146 260.404 397.029 260.037C396.921 259.662 396.771 259.362 396.579 259.137C396.387 258.904 396.162 258.737 395.904 258.637C395.646 258.529 395.371 258.475 395.079 258.475C394.787 258.475 394.512 258.529 394.254 258.637C393.996 258.737 393.771 258.904 393.579 259.137C393.396 259.362 393.25 259.662 393.141 260.037C393.033 260.404 392.979 260.854 392.979 261.387C392.979 261.904 393.033 262.346 393.141 262.712C393.25 263.071 393.396 263.362 393.579 263.587C393.771 263.812 393.996 263.975 394.254 264.075C394.512 264.175 394.787 264.225 395.079 264.225C395.371 264.225 395.646 264.175 395.904 264.075C396.162 263.975 396.387 263.812 396.579 263.587C396.771 263.362 396.921 263.071 397.029 262.712C397.146 262.346 397.204 261.904 397.204 261.387ZM405.354 257.45C405.446 257.342 405.55 257.25 405.666 257.175C405.791 257.092 405.962 257.05 406.179 257.05H407.941L394.766 274.612C394.675 274.729 394.566 274.825 394.441 274.9C394.316 274.967 394.166 275 393.991 275H392.179L405.354 257.45ZM409.091 270.762C409.091 271.462 408.979 272.087 408.754 272.637C408.537 273.187 408.246 273.654 407.879 274.037C407.512 274.412 407.083 274.704 406.591 274.912C406.108 275.113 405.6 275.213 405.066 275.213C404.491 275.213 403.958 275.113 403.466 274.912C402.983 274.704 402.562 274.412 402.204 274.037C401.846 273.654 401.562 273.187 401.354 272.637C401.154 272.087 401.054 271.462 401.054 270.762C401.054 270.046 401.154 269.408 401.354 268.85C401.562 268.292 401.846 267.821 402.204 267.437C402.562 267.046 402.983 266.75 403.466 266.55C403.958 266.35 404.491 266.25 405.066 266.25C405.641 266.25 406.171 266.35 406.654 266.55C407.146 266.75 407.571 267.046 407.929 267.437C408.296 267.821 408.579 268.292 408.779 268.85C408.987 269.408 409.091 270.046 409.091 270.762ZM407.191 270.762C407.191 270.229 407.133 269.779 407.016 269.412C406.908 269.046 406.758 268.75 406.566 268.525C406.375 268.292 406.15 268.125 405.891 268.025C405.633 267.917 405.358 267.862 405.066 267.862C404.766 267.862 404.487 267.917 404.229 268.025C403.979 268.125 403.758 268.292 403.566 268.525C403.383 268.75 403.237 269.046 403.129 269.412C403.021 269.779 402.966 270.229 402.966 270.762C402.966 271.287 403.021 271.729 403.129 272.087C403.237 272.446 403.383 272.737 403.566 272.962C403.758 273.187 403.979 273.35 404.229 273.45C404.487 273.55 404.766 273.6 405.066 273.6C405.358 273.6 405.633 273.55 405.891 273.45C406.15 273.35 406.375 273.187 406.566 272.962C406.758 272.737 406.908 272.446 407.016 272.087C407.133 271.729 407.191 271.287 407.191 270.762Z" fill="#5BBB10"/>
<path d="M398.25 391.262C398.817 391.262 399.321 391.183 399.763 391.025C400.204 390.867 400.579 390.646 400.888 390.362C401.196 390.071 401.429 389.725 401.588 389.325C401.746 388.925 401.825 388.487 401.825 388.012C401.825 387.429 401.729 386.929 401.538 386.512C401.346 386.087 401.088 385.742 400.763 385.475C400.438 385.2 400.058 385 399.625 384.875C399.192 384.742 398.733 384.675 398.25 384.675C397.758 384.675 397.296 384.742 396.863 384.875C396.429 385 396.05 385.2 395.725 385.475C395.4 385.742 395.142 386.087 394.95 386.512C394.767 386.929 394.675 387.429 394.675 388.012C394.675 388.487 394.754 388.925 394.913 389.325C395.071 389.725 395.304 390.071 395.613 390.362C395.921 390.646 396.296 390.867 396.738 391.025C397.179 391.183 397.683 391.262 398.25 391.262ZM398.25 376.725C397.733 376.725 397.279 376.804 396.888 376.962C396.504 377.112 396.183 377.321 395.925 377.587C395.667 377.854 395.471 378.162 395.338 378.512C395.213 378.862 395.15 379.237 395.15 379.637C395.15 380.029 395.204 380.412 395.313 380.787C395.429 381.154 395.608 381.483 395.85 381.775C396.1 382.058 396.421 382.287 396.813 382.462C397.204 382.637 397.683 382.725 398.25 382.725C398.808 382.725 399.283 382.637 399.675 382.462C400.075 382.287 400.396 382.058 400.638 381.775C400.888 381.483 401.067 381.154 401.175 380.787C401.292 380.412 401.35 380.029 401.35 379.637C401.35 379.237 401.283 378.862 401.15 378.512C401.025 378.162 400.833 377.854 400.575 377.587C400.317 377.321 399.992 377.112 399.6 376.962C399.217 376.804 398.767 376.725 398.25 376.725ZM400.938 383.637C402.054 383.971 402.9 384.508 403.475 385.25C404.058 385.992 404.35 386.929 404.35 388.062C404.35 388.846 404.2 389.554 403.9 390.187C403.608 390.821 403.192 391.362 402.65 391.812C402.117 392.254 401.475 392.596 400.725 392.837C399.975 393.079 399.15 393.2 398.25 393.2C397.35 393.2 396.525 393.079 395.775 392.837C395.025 392.596 394.379 392.254 393.838 391.812C393.304 391.362 392.888 390.821 392.588 390.187C392.296 389.554 392.15 388.846 392.15 388.062C392.15 386.929 392.438 385.992 393.013 385.25C393.596 384.508 394.446 383.971 395.563 383.637C394.638 383.287 393.942 382.767 393.475 382.075C393.008 381.375 392.775 380.546 392.775 379.587C392.775 378.921 392.904 378.3 393.163 377.725C393.429 377.142 393.8 376.637 394.275 376.212C394.758 375.787 395.338 375.454 396.013 375.212C396.688 374.971 397.433 374.85 398.25 374.85C399.067 374.85 399.813 374.971 400.488 375.212C401.163 375.454 401.738 375.787 402.213 376.212C402.696 376.637 403.067 377.142 403.325 377.725C403.592 378.3 403.725 378.921 403.725 379.587C403.725 380.546 403.492 381.375 403.025 382.075C402.558 382.767 401.863 383.287 400.938 383.637ZM419.277 384.025C419.277 385.592 419.106 386.95 418.764 388.1C418.431 389.25 417.969 390.204 417.377 390.962C416.794 391.712 416.102 392.271 415.302 392.637C414.51 393.004 413.656 393.188 412.739 393.188C411.823 393.188 410.964 393.004 410.164 392.637C409.373 392.271 408.685 391.712 408.102 390.962C407.519 390.204 407.06 389.25 406.727 388.1C406.394 386.95 406.227 385.592 406.227 384.025C406.227 382.458 406.394 381.1 406.727 379.95C407.06 378.792 407.519 377.837 408.102 377.087C408.685 376.329 409.373 375.767 410.164 375.4C410.964 375.033 411.823 374.85 412.739 374.85C413.656 374.85 414.51 375.033 415.302 375.4C416.102 375.767 416.794 376.329 417.377 377.087C417.969 377.837 418.431 378.792 418.764 379.95C419.106 381.1 419.277 382.458 419.277 384.025ZM416.752 384.025C416.752 382.675 416.639 381.546 416.414 380.637C416.198 379.729 415.902 379 415.527 378.45C415.16 377.892 414.735 377.496 414.252 377.262C413.769 377.029 413.264 376.912 412.739 376.912C412.214 376.912 411.71 377.029 411.227 377.262C410.744 377.496 410.314 377.892 409.939 378.45C409.573 379 409.281 379.729 409.064 380.637C408.848 381.546 408.739 382.675 408.739 384.025C408.739 385.375 408.848 386.504 409.064 387.412C409.281 388.321 409.573 389.05 409.939 389.6C410.314 390.15 410.744 390.542 411.227 390.775C411.71 391.008 412.214 391.125 412.739 391.125C413.264 391.125 413.769 391.008 414.252 390.775C414.735 390.542 415.16 390.15 415.527 389.6C415.902 389.05 416.198 388.321 416.414 387.412C416.639 386.504 416.752 385.375 416.752 384.025ZM429.104 379.387C429.104 380.087 428.991 380.712 428.766 381.262C428.55 381.812 428.258 382.279 427.891 382.662C427.525 383.037 427.096 383.329 426.604 383.537C426.121 383.737 425.612 383.837 425.079 383.837C424.504 383.837 423.971 383.737 423.479 383.537C422.996 383.329 422.575 383.037 422.216 382.662C421.858 382.279 421.575 381.812 421.366 381.262C421.166 380.712 421.066 380.087 421.066 379.387C421.066 378.671 421.166 378.033 421.366 377.475C421.575 376.917 421.858 376.446 422.216 376.062C422.575 375.671 422.996 375.375 423.479 375.175C423.971 374.967 424.504 374.862 425.079 374.862C425.654 374.862 426.183 374.967 426.666 375.175C427.158 375.375 427.583 375.671 427.941 376.062C428.308 376.446 428.591 376.917 428.791 377.475C429 378.033 429.104 378.671 429.104 379.387ZM427.204 379.387C427.204 378.854 427.146 378.404 427.029 378.037C426.921 377.662 426.771 377.362 426.579 377.137C426.387 376.904 426.162 376.737 425.904 376.637C425.646 376.529 425.371 376.475 425.079 376.475C424.787 376.475 424.512 376.529 424.254 376.637C423.996 376.737 423.771 376.904 423.579 377.137C423.396 377.362 423.25 377.662 423.141 378.037C423.033 378.404 422.979 378.854 422.979 379.387C422.979 379.904 423.033 380.346 423.141 380.712C423.25 381.071 423.396 381.362 423.579 381.587C423.771 381.812 423.996 381.975 424.254 382.075C424.512 382.175 424.787 382.225 425.079 382.225C425.371 382.225 425.646 382.175 425.904 382.075C426.162 381.975 426.387 381.812 426.579 381.587C426.771 381.362 426.921 381.071 427.029 380.712C427.146 380.346 427.204 379.904 427.204 379.387ZM435.354 375.45C435.446 375.342 435.55 375.25 435.666 375.175C435.791 375.092 435.962 375.05 436.179 375.05H437.941L424.766 392.612C424.675 392.729 424.566 392.825 424.441 392.9C424.316 392.967 424.166 393 423.991 393H422.179L435.354 375.45ZM439.091 388.762C439.091 389.462 438.979 390.087 438.754 390.637C438.537 391.187 438.246 391.654 437.879 392.037C437.512 392.412 437.083 392.704 436.591 392.912C436.108 393.113 435.6 393.213 435.066 393.213C434.491 393.213 433.958 393.113 433.466 392.912C432.983 392.704 432.562 392.412 432.204 392.037C431.846 391.654 431.562 391.187 431.354 390.637C431.154 390.087 431.054 389.462 431.054 388.762C431.054 388.046 431.154 387.408 431.354 386.85C431.562 386.292 431.846 385.821 432.204 385.437C432.562 385.046 432.983 384.75 433.466 384.55C433.958 384.35 434.491 384.25 435.066 384.25C435.641 384.25 436.171 384.35 436.654 384.55C437.146 384.75 437.571 385.046 437.929 385.437C438.296 385.821 438.579 386.292 438.779 386.85C438.987 387.408 439.091 388.046 439.091 388.762ZM437.191 388.762C437.191 388.229 437.133 387.779 437.016 387.412C436.908 387.046 436.758 386.75 436.566 386.525C436.375 386.292 436.15 386.125 435.891 386.025C435.633 385.917 435.358 385.862 435.066 385.862C434.766 385.862 434.487 385.917 434.229 386.025C433.979 386.125 433.758 386.292 433.566 386.525C433.383 386.75 433.237 387.046 433.129 387.412C433.021 387.779 432.966 388.229 432.966 388.762C432.966 389.287 433.021 389.729 433.129 390.087C433.237 390.446 433.383 390.737 433.566 390.962C433.758 391.187 433.979 391.35 434.229 391.45C434.487 391.55 434.766 391.6 435.066 391.6C435.358 391.6 435.633 391.55 435.891 391.45C436.15 391.35 436.375 391.187 436.566 390.962C436.758 390.737 436.908 390.446 437.016 390.087C437.133 389.729 437.191 389.287 437.191 388.762Z" fill="#15C1CC"/>
<line opacity="0.1" x1="7.5" y1="183.5" x2="480.5" y2="183.5" stroke="#DA5A12" stroke-width="15" stroke-linecap="round"/>
<line opacity="0.1" x1="7.5" y1="301.5" x2="480.5" y2="301.5" stroke="#5BBB10" stroke-width="15" stroke-linecap="round"/>
<line opacity="0.1" x1="7.5" y1="419.5" x2="480.5" y2="419.5" stroke="#15C1CC" stroke-width="15" stroke-linecap="round"/>
<line x1="7.5" y1="65.5" x2="414.5" y2="65.5" stroke="#E41A1A" stroke-width="15" stroke-linecap="round"/>
<line x1="7.5" y1="183.5" x2="450.5" y2="183.5" stroke="#DA5A12" stroke-width="15" stroke-linecap="round"/>
<line x1="7.5" y1="301.5" x2="389.5" y2="301.5" stroke="#5BBB10" stroke-width="15" stroke-linecap="round"/>
<line opacity="0.1" x1="7.5" y1="65.5" x2="480.5" y2="65.5" stroke="#E41A1A" stroke-width="15" stroke-linecap="round"/>
<line x1="7.5" y1="419.5" x2="414.5" y2="419.5" stroke="#15C1CC" stroke-width="15" stroke-linecap="round"/>
</svg>
