<svg width="45" height="45" viewBox="0 0 45 45" fill="none" xmlns="http://www.w3.org/2000/svg">
<path d="M44.7288 1.09094C44.7288 0.488415 44.2404 0 43.6379 0H33.6108C33.0083 0 32.5199 0.488415 32.5199 1.09094C32.5199 1.69347 33.0083 2.18189 33.6108 2.18189H41.1585L26.7331 17.0689C25.6092 18.2287 23.8327 18.3993 22.5087 17.4746L16.5393 13.3055C14.3096 11.7481 11.2405 12.0838 9.40006 14.086L0.287739 23.9995C-0.119946 24.4431 -0.0909272 25.1334 0.35265 25.541C0.56222 25.7337 0.826774 25.8288 1.09067 25.8288C1.38534 25.8288 1.67902 25.7101 1.89415 25.4762L11.0065 15.5627C12.1107 14.3615 13.9521 14.1601 15.2899 15.0944L21.2594 19.2635C23.4661 20.8046 26.4269 20.5203 28.3 18.5874L42.5469 3.88452V11.1181C42.5469 11.7207 43.0354 12.2091 43.6379 12.2091C44.2404 12.2091 44.7288 11.7207 44.7288 11.1181V1.09094Z" fill="#E80F0F"/>
<path d="M44.7289 43.4141V22.9591C44.7289 22.3566 44.2404 21.8682 43.6379 21.8682C43.0354 21.8682 42.547 22.3566 42.547 22.9591V42.3231H31.8773V28.0997C31.8773 27.4973 31.3889 27.0088 30.7864 27.0088C30.1839 27.0088 29.6955 27.4973 29.6955 28.0997V42.3231H19.0258V34.0771C19.0258 33.4747 18.5374 32.9862 17.9349 32.9862C17.3323 32.9862 16.8439 33.4747 16.8439 34.0771V42.3231H5.53162V34.125C5.53162 33.5226 5.0432 33.0341 4.44067 33.0341C3.83815 33.0341 3.34973 33.5226 3.34973 34.125V43.414C3.34973 44.0164 3.83815 44.5049 4.44067 44.5049H43.6379C44.2404 44.505 44.7289 44.0165 44.7289 43.4141Z" fill="#E80F0F"/>
</svg>
