<svg width="44" height="49" viewBox="0 0 44 49" fill="none" xmlns="http://www.w3.org/2000/svg">
<path d="M36 15.2217C36 11.5086 34.525 7.94769 31.8995 5.32218C29.274 2.69668 25.713 1.22168 22 1.22168C18.287 1.22168 14.726 2.69668 12.1005 5.32218C9.475 7.94769 8 11.5086 8 15.2217C8 31.555 1 36.2217 1 36.2217H43C43 36.2217 36 31.555 36 15.2217Z" stroke="#9113CD" stroke-width="2" stroke-linecap="round" stroke-linejoin="round"/>
<path d="M26.0367 45.5551C25.6265 46.2623 25.0377 46.8493 24.3293 47.2574C23.6208 47.6654 22.8176 47.8802 22.0001 47.8802C21.1825 47.8802 20.3793 47.6654 19.6709 47.2574C18.9624 46.8493 18.3736 46.2623 17.9634 45.5551" stroke="#9113CD" stroke-width="2" stroke-linecap="round" stroke-linejoin="round"/>
</svg>
