<svg width="50" height="42" viewBox="0 0 50 42" fill="none" xmlns="http://www.w3.org/2000/svg">
<path d="M35.9091 40.2727V35.9091C35.9091 33.5945 34.9896 31.3747 33.3529 29.738C31.7163 28.1013 29.4964 27.1818 27.1818 27.1818H9.72727C7.41266 27.1818 5.19284 28.1013 3.55616 29.738C1.91948 31.3747 1 33.5945 1 35.9091V40.2727" stroke="#D7187F" stroke-width="2" stroke-linecap="round" stroke-linejoin="round"/>
<path d="M18.4546 18.4545C23.2745 18.4545 27.1818 14.5472 27.1818 9.72727C27.1818 4.90733 23.2745 1 18.4546 1C13.6346 1 9.72728 4.90733 9.72728 9.72727C9.72728 14.5472 13.6346 18.4545 18.4546 18.4545Z" stroke="#D7187F" stroke-width="2" stroke-linecap="round" stroke-linejoin="round"/>
<path d="M49 40.2725V35.9088C48.9986 33.9752 48.355 32.0967 47.1703 30.5684C45.9855 29.0402 44.3268 27.9486 42.4545 27.4652" stroke="#D7187F" stroke-width="2" stroke-linecap="round" stroke-linejoin="round"/>
<path d="M33.7273 1.28339C35.6045 1.76404 37.2684 2.85582 38.4567 4.38661C39.6449 5.91739 40.2898 7.80011 40.2898 9.73793C40.2898 11.6758 39.6449 13.5585 38.4567 15.0893C37.2684 16.62 35.6045 17.7118 33.7273 18.1925" stroke="#D7187F" stroke-width="2" stroke-linecap="round" stroke-linejoin="round"/>
</svg>
