<svg height="512" viewBox="0 0 512 512" width="512" xmlns="http://www.w3.org/2000/svg"><g><path d="m471.94 494.99-48-376a8 8 0 0 0 -7.94-6.99h-48v-56a48.051 48.051 0 0 0 -48-48h-120a48.051 48.051 0 0 0 -48 48v56h-48a8 8 0 0 0 -7.91 6.82l-56 376a8 8 0 0 0 7.91 9.18h416a8.008 8.008 0 0 0 7.94-9.01zm-303.94-438.99a32.036 32.036 0 0 1 32-32h120a32.036 32.036 0 0 1 32 32v96h-16v-96a16.021 16.021 0 0 0 -16-16h-120a16.021 16.021 0 0 0 -16 16v96h-16zm152 0v56h-120v-56zm-262.72 432 53.62-360h41.1v32a8 8 0 0 0 8 8h32a8 8 0 0 0 8-8v-32h120v32a8 8 0 0 0 8 8h32a8 8 0 0 0 8-8v-32h40.96l45.95 360z"/><path d="m344 224h-176a8 8 0 0 0 -8 8v176a8 8 0 0 0 8 8h176a8 8 0 0 0 8-8v-176a8 8 0 0 0 -8-8zm-8 16v101.332l-37.6-50.132a8 8 0 0 0 -12.8 0l-49.6 66.134-13.6-18.134a8 8 0 0 0 -12.8 0l-33.6 44.8v-144zm-88 160h-64l32-42.667zm20 0-22-29.332 46-61.335 44 58.667v32z"/><path d="m216 320a32 32 0 1 0 -32-32 32.036 32.036 0 0 0 32 32zm0-48a16 16 0 1 1 -16 16 16.019 16.019 0 0 1 16-16z"/></g></svg>