<svg height="480pt" viewBox="0 -16 480 480" width="480pt" xmlns="http://www.w3.org/2000/svg"><path d="m456 0h-440c-8.835938 0-16 7.164062-16 16v408c0 13.253906 10.746094 24 24 24h432c13.253906 0 24-10.746094 24-24v-400c0-13.253906-10.746094-24-24-24zm8 424c0 4.417969-3.582031 8-8 8h-432c-4.417969 0-8-3.582031-8-8v-336h448zm0-352h-448v-56h440c4.417969 0 8 3.582031 8 8zm0 0"/><path d="m88 24h-32c-4.417969 0-8 3.582031-8 8v24c0 4.417969 3.582031 8 8 8h32c4.417969 0 8-3.582031 8-8v-24c0-4.417969-3.582031-8-8-8zm-8 24h-16v-8h16zm0 0"/><path d="m168 24h-32c-4.417969 0-8 3.582031-8 8v24c0 4.417969 3.582031 8 8 8h32c4.417969 0 8-3.582031 8-8v-24c0-4.417969-3.582031-8-8-8zm-8 24h-16v-8h16zm0 0"/><path d="m248 24h-32c-4.417969 0-8 3.582031-8 8v24c0 4.417969 3.582031 8 8 8h32c4.417969 0 8-3.582031 8-8v-24c0-4.417969-3.582031-8-8-8zm-8 24h-16v-8h16zm0 0"/><path d="m39.121094 342.222656c-3.339844 1.683594-5.066406 5.453125-4.160156 9.082032 2.28125 9.152343 5.910156 17.917968 10.765624 26.007812 1.925782 3.210938 5.824219 4.65625 9.378907 3.480469 5.714843-1.964844 12.046875-.5 16.320312 3.773437 4.273438 4.273438 5.738281 10.605469 3.773438 16.320313-1.175781 3.554687.269531 7.453125 3.480469 9.378906 8.089843 4.859375 16.859374 8.492187 26.015624 10.773437.636719.152344 1.285157.230469 1.9375.234376 3.023438-.003907 5.785157-1.707032 7.144532-4.410157 2.65625-5.425781 8.171875-8.863281 14.214844-8.863281 6.042968 0 11.554687 3.4375 14.214843 8.863281 1.679688 3.339844 5.453125 5.074219 9.082031 4.167969 9.15625-2.28125 17.925782-5.914062 26.015626-10.773438 3.210937-1.925781 4.65625-5.824218 3.480468-9.378906-1.960937-5.714844-.488281-12.046875 3.785156-16.316406 4.277344-4.269531 10.613282-5.730469 16.324219-3.761719 3.554688 1.175781 7.453125-.269531 9.378907-3.480469 4.859374-8.085937 8.488281-16.851562 10.765624-26.007812.90625-3.628906-.820312-7.398438-4.160156-9.082031-5.433594-2.65625-8.878906-8.175781-8.878906-14.222657 0-6.046874 3.445312-11.566406 8.878906-14.222656 3.339844-1.683594 5.066406-5.453125 4.160156-9.082031-2.28125-9.152344-5.910156-17.917969-10.765624-26.007813-1.925782-3.210937-5.824219-4.65625-9.378907-3.480468-5.714843 1.964844-12.050781.5-16.324219-3.773438-4.273437-4.277344-5.738281-10.613281-3.769531-16.328125 1.175781-3.554687-.269531-7.453125-3.480469-9.378906-8.089843-4.859375-16.859374-8.492187-26.015624-10.773437-3.632813-.902344-7.402344.832031-9.082032 4.175781-2.65625 5.425781-8.171875 8.863281-14.214844 8.863281-6.042968 0-11.554687-3.4375-14.214843-8.863281-1.679688-3.34375-5.449219-5.078125-9.082031-4.175781-9.15625 2.28125-17.925782 5.914062-26.015626 10.773437-3.210937 1.925781-4.65625 5.824219-3.480468 9.378906 1.964844 5.714844.496094 12.050781-3.78125 16.324219s-10.613282 5.730469-16.328125 3.761719c-3.554688-1.175781-7.453125.269531-9.378907 3.480469-4.855468 8.09375-8.484374 16.859374-10.765624 26.015624-.90625 3.628907.820312 7.398438 4.160156 9.082032 5.433594 2.65625 8.878906 8.175781 8.878906 14.222656s-3.445312 11.566406-8.878906 14.222656zm12.917968-39.023437c1.269532-3.882813 2.835938-7.660157 4.679688-11.304688 9.609375 1.082031 19.1875-2.269531 26.027344-9.109375 6.835937-6.835937 10.191406-16.414062 9.109375-26.023437 3.636719-1.851563 7.414062-3.414063 11.296875-4.671875 6.035156 7.550781 15.179687 11.949218 24.847656 11.949218s18.8125-4.398437 24.847656-11.949218c3.882813 1.257812 7.660156 2.820312 11.296875 4.671875-1.082031 9.609375 2.273438 19.1875 9.109375 26.023437 6.839844 6.839844 16.417969 10.191406 26.027344 9.109375 1.859375 3.644531 3.4375 7.421875 4.71875 11.304688-7.558594 6.03125-11.960938 15.171875-11.960938 24.839843 0 9.667969 4.402344 18.8125 11.960938 24.839844-1.265625 3.882813-2.832031 7.664063-4.679688 11.304688-9.609374-1.078125-19.1875 2.273437-26.027343 9.109375-6.835938 6.839843-10.1875 16.417969-9.109375 26.027343-3.640625 1.847657-7.421875 3.414063-11.304688 4.679688-6.03125-7.554688-15.175781-11.953125-24.84375-11.953125-9.667968 0-18.808594 4.398437-24.84375 11.953125-3.882812-1.261719-7.65625-2.820312-11.296875-4.671875 1.101563-9.625-2.25-19.226563-9.101562-26.078125-6.847657-6.847656-16.449219-10.203125-26.074219-9.105469-1.84375-3.644531-3.410156-7.421875-4.679688-11.304687 7.558594-6.027344 11.960938-15.171875 11.960938-24.839844s-4.402344-18.8125-11.960938-24.839844zm0 0"/><path d="m128 376c26.507812 0 48-21.492188 48-48s-21.492188-48-48-48-48 21.492188-48 48c.027344 26.5 21.5 47.972656 48 48zm0-80c17.671875 0 32 14.328125 32 32s-14.328125 32-32 32-32-14.328125-32-32 14.328125-32 32-32zm0 0"/><path d="m352 296c53.019531 0 96-42.980469 96-96s-42.980469-96-96-96-96 42.980469-96 96c.058594 52.996094 43.003906 95.941406 96 96zm0-176c44.183594 0 80 35.816406 80 80s-35.816406 80-80 80-80-35.816406-80-80c.046875-44.164062 35.835938-79.953125 80-80zm0 0"/><path d="m120 160h120v-16h-128c-4.417969 0-8 3.582031-8 8v64h16zm0 0"/><path d="m352 384h-112v16h120c4.417969 0 8-3.582031 8-8v-80h-16zm0 0"/><path d="m344 264c2.121094 0 4.15625-.84375 5.65625-2.34375l72-72c3.121094-3.125 3.121094-8.1875 0-11.3125l-24-24c-3.125-3.121094-8.1875-3.121094-11.3125 0l-42.34375 42.34375-18.34375-18.34375c-3.125-3.121094-8.1875-3.121094-11.3125 0l-24 24c-3.121094 3.125-3.121094 8.1875 0 11.3125l48 48c1.5 1.5 3.535156 2.34375 5.65625 2.34375zm-24-68.6875 18.34375 18.34375c3.125 3.121094 8.1875 3.121094 11.3125 0l42.34375-42.34375 12.6875 12.6875-60.6875 60.6875-36.6875-36.6875zm0 0"/></svg>